<svg width="33" height="33" viewBox="0 0 33 33" fill="none" xmlns="http://www.w3.org/2000/svg">
<path d="M24.75 3.40312C22.3266 1.90781 19.5422 1.03125 16.5 1.03125V3.40312H24.75Z" fill="#ED4C5C"/>
<path d="M16.5 5.77422H27.6375C26.7609 4.89766 25.7812 4.07266 24.75 3.40234H16.5V5.77422Z" fill="white"/>
<path d="M16.5 8.14629H29.5453C28.9781 7.26973 28.3594 6.49629 27.6891 5.77441H16.5V8.14629Z" fill="#ED4C5C"/>
<path d="M16.5 10.5193H30.7828C30.4219 9.69434 30.0094 8.86934 29.5453 8.14746H16.5V10.5193Z" fill="white"/>
<path d="M16.5 12.8914H31.5563C31.35 12.0664 31.0922 11.293 30.7828 10.5195H16.5V12.8914Z" fill="#ED4C5C"/>
<path d="M16.5 15.3133H31.9172C31.8656 14.4883 31.7109 13.7148 31.5563 12.9414H16.5V15.3133Z" fill="white"/>
<path d="M31.9172 15.3135H16.5V16.4994H1.03125C1.03125 16.9119 1.03125 17.2729 1.08281 17.6854H31.9172C31.9688 17.2729 31.9688 16.9119 31.9688 16.4994C31.9688 16.0869 31.9688 15.6744 31.9172 15.3135Z" fill="#ED4C5C"/>
<path d="M1.44376 20.0584H31.5563C31.7625 19.285 31.8656 18.5115 31.9172 17.6865H1.08282C1.13439 18.46 1.23751 19.285 1.44376 20.0584Z" fill="white"/>
<path d="M2.21716 22.4305H30.7828C31.0922 21.657 31.35 20.8836 31.5562 20.0586H1.44373C1.64998 20.8836 1.90779 21.657 2.21716 22.4305Z" fill="#ED4C5C"/>
<path d="M3.45466 24.8016H29.5453C30.0093 24.0281 30.4219 23.2547 30.7828 22.4297H2.21716C2.5781 23.2547 2.9906 24.0281 3.45466 24.8016Z" fill="white"/>
<path d="M5.31096 27.1727H27.6891C28.3594 26.4508 29.0297 25.6258 29.5453 24.8008H3.45471C3.97034 25.6773 4.64065 26.4508 5.31096 27.1727Z" fill="#ED4C5C"/>
<path d="M8.19841 29.5447H24.8015C25.8843 28.8744 26.8125 28.0494 27.689 27.1729H5.31091C6.18748 28.101 7.16716 28.8744 8.19841 29.5447Z" fill="white"/>
<path d="M16.5 31.9693C19.5422 31.9693 22.3782 31.0928 24.8016 29.5459H8.19849C10.6219 31.0928 13.4579 31.9693 16.5 31.9693Z" fill="#ED4C5C"/>
<path d="M8.25 3.40313C7.16719 4.07344 6.1875 4.89844 5.31094 5.775C4.58906 6.49687 3.97031 7.32188 3.45469 8.14687C2.99062 8.92031 2.52656 9.69375 2.21719 10.5188C1.90781 11.2922 1.65 12.0656 1.44375 12.8906C1.2375 13.6641 1.13437 14.4375 1.08281 15.2625C1.03125 15.675 1.03125 16.0875 1.03125 16.5H16.5V1.03125C13.4578 1.03125 10.6734 1.90781 8.25 3.40313Z" fill="#428BC1"/>
<path d="M12.8906 1.54688L13.1484 2.32031H13.9219L13.3031 2.83594L13.5094 3.60938L12.8906 3.14531L12.2719 3.60938L12.4781 2.83594L11.8594 2.32031H12.6328L12.8906 1.54688ZM14.9531 4.64062L15.2109 5.41406H15.9844L15.3656 5.92969L15.5719 6.70312L14.9531 6.23906L14.3344 6.70312L14.5406 5.92969L13.9219 5.41406H14.6953L14.9531 4.64062ZM10.8281 4.64062L11.0859 5.41406H11.8594L11.2406 5.92969L11.4469 6.70312L10.8281 6.23906L10.2094 6.70312L10.4156 5.92969L9.79686 5.41406H10.5703L10.8281 4.64062ZM12.8906 7.73438L13.1484 8.50781H13.9219L13.3031 9.02344L13.5094 9.79688L12.8906 9.33281L12.2719 9.79688L12.4781 9.02344L11.8594 8.50781H12.6328L12.8906 7.73438ZM8.76561 7.73438L9.02343 8.50781H9.79686L9.17811 9.02344L9.38436 9.79688L8.76561 9.33281L8.14686 9.79688L8.35311 9.02344L7.73436 8.50781H8.5078L8.76561 7.73438ZM4.64061 7.73438L4.89843 8.50781H5.67186L5.05311 9.02344L5.25936 9.79688L4.64061 9.33281L4.02186 9.79688L4.22811 9.02344L3.60936 8.50781H4.3828L4.64061 7.73438ZM14.9531 10.8281L15.2109 11.6016H15.9844L15.3656 12.1172L15.5719 12.8906L14.9531 12.4266L14.3344 12.8906L14.5406 12.1172L13.9219 11.6016H14.6953L14.9531 10.8281ZM10.8281 10.8281L11.0859 11.6016H11.8594L11.2406 12.1172L11.4469 12.8906L10.8281 12.4266L10.2094 12.8906L10.4156 12.1172L9.79686 11.6016H10.5703L10.8281 10.8281ZM6.70311 10.8281L6.96093 11.6016H7.73436L7.11561 12.1172L7.32186 12.8906L6.70311 12.4266L6.08436 12.8906L6.29061 12.1172L5.67186 11.6016H6.4453L6.70311 10.8281ZM12.8906 13.9219L13.1484 14.6953H13.9219L13.3031 15.2109L13.5094 15.9844L12.8906 15.5203L12.2719 15.9844L12.4781 15.2109L11.8594 14.6953H12.6328L12.8906 13.9219ZM8.76561 13.9219L9.02343 14.6953H9.79686L9.17811 15.2109L9.38436 15.9844L8.76561 15.5203L8.14686 15.9844L8.35311 15.2109L7.73436 14.6953H8.5078L8.76561 13.9219ZM4.64061 13.9219L4.89843 14.6953H5.67186L5.05311 15.2109L5.25936 15.9844L4.64061 15.5203L4.02186 15.9844L4.22811 15.2109L3.60936 14.6953H4.3828L4.64061 13.9219ZM6.08436 6.70312L6.70311 6.23906L7.32186 6.70312L7.06405 5.92969L7.6828 5.41406H6.90936L6.70311 4.64062L6.4453 5.41406H5.72343L6.34218 5.87812L6.08436 6.70312ZM1.95936 12.8906L2.57811 12.4266L3.19686 12.8906L2.93905 12.1172L3.5578 11.6016H2.83593L2.57811 10.8281L2.3203 11.6016H1.80468C1.80468 11.6531 1.75311 11.7047 1.75311 11.7562L2.16561 12.0656L1.95936 12.8906Z" fill="white"/>
</svg>
