<svg width="108" height="38" viewBox="0 0 108 38" fill="none" xmlns="http://www.w3.org/2000/svg">
<path fill-rule="evenodd" clip-rule="evenodd" d="M89.172 28.165H89.1132C89.1132 28.1356 89.0985 28.0915 89.0985 28.0766C89.0985 28.062 89.0985 28.0327 89.0543 28.0327H88.966V28.165H88.9219V27.8561H89.0543C89.1132 27.8561 89.1573 27.8709 89.1573 27.9296C89.1573 27.9737 89.1426 27.9885 89.128 28.003C89.1427 28.0179 89.1573 28.0326 89.1573 28.062V28.1208C89.1573 28.1356 89.1573 28.1356 89.172 28.1356V28.165ZM89.1132 27.9444C89.1132 27.9002 89.0838 27.9002 89.0691 27.9002H88.966V27.9885H89.0543C89.0838 27.9885 89.1132 27.9737 89.1132 27.9444V27.9444ZM89.3634 28.0032C89.3634 27.8267 89.2163 27.6794 89.0249 27.6794C88.8484 27.6794 88.7012 27.8267 88.7012 28.0032C88.7012 28.1944 88.8484 28.3417 89.0249 28.3417C89.2162 28.3416 89.3634 28.1944 89.3634 28.0032ZM89.3192 28.0032C89.3192 28.1651 89.1868 28.2827 89.0249 28.2827C88.863 28.2827 88.7453 28.165 88.7453 28.0032C88.7453 27.8561 88.8631 27.7236 89.0249 27.7236C89.1867 27.7236 89.3192 27.8561 89.3192 28.0032ZM107.448 22.0584C107.448 22.4999 107.168 22.7057 106.668 22.7057H105.712V22.2642H106.668C106.756 22.2642 106.83 22.2496 106.859 22.2203C106.889 22.1907 106.918 22.1466 106.918 22.0878C106.918 22.0288 106.889 21.97 106.859 21.9407C106.83 21.9111 106.771 21.8965 106.683 21.8965C106.227 21.8817 105.653 21.9111 105.653 21.2638C105.653 20.9694 105.844 20.6456 106.359 20.6456H107.345V21.0871H106.432C106.344 21.0871 106.285 21.0871 106.241 21.1165C106.197 21.1606 106.168 21.2048 106.168 21.2784C106.168 21.352 106.212 21.3961 106.271 21.4257C106.33 21.4403 106.389 21.455 106.462 21.455H106.727C107.006 21.455 107.183 21.5138 107.301 21.6169C107.389 21.7199 107.448 21.8525 107.448 22.0584V22.0584ZM105.373 21.6169C105.255 21.5138 105.079 21.455 104.799 21.455H104.534C104.461 21.455 104.402 21.4402 104.343 21.4257C104.284 21.3961 104.24 21.352 104.24 21.2784C104.24 21.2048 104.255 21.1606 104.314 21.1165C104.358 21.0871 104.417 21.0871 104.505 21.0871H105.417V20.6456H104.431C103.902 20.6456 103.725 20.9694 103.725 21.2638C103.725 21.911 104.299 21.8817 104.755 21.8965C104.843 21.8965 104.902 21.9111 104.932 21.9407C104.961 21.97 104.991 22.0288 104.991 22.0878C104.991 22.1466 104.961 22.1907 104.932 22.2203C104.887 22.2496 104.829 22.2642 104.74 22.2642H103.784V22.7057H104.74C105.24 22.7057 105.52 22.4998 105.52 22.0584C105.52 21.8525 105.461 21.7199 105.373 21.6169V21.6169ZM103.489 22.2791H102.327V21.8671H103.46V21.4552H102.327V21.0725H103.489V20.6458H101.842V22.7058H103.489V22.2791ZM101.312 20.7489C101.15 20.6606 100.959 20.6457 100.708 20.6457H99.5755V22.7057H100.076V21.9553H100.606C100.782 21.9553 100.885 21.9701 100.959 22.0436C101.047 22.1466 101.047 22.3232 101.047 22.4557V22.7057H101.532V22.3084C101.532 22.1171 101.518 22.0288 101.459 21.9259C101.415 21.8669 101.327 21.7934 101.209 21.7492C101.341 21.7053 101.562 21.5286 101.562 21.2048C101.562 20.9695 101.474 20.837 101.312 20.7489V20.7489ZM98.516 20.6457H96.9415L96.3087 21.3227L95.7054 20.6457H93.7189V22.7057H95.6761L96.3088 22.0288L96.9121 22.7057H97.8686V22.0143H98.4867C98.9133 22.0143 99.3402 21.8965 99.3402 21.3227C99.3401 20.7635 98.8986 20.6457 98.516 20.6457ZM100.914 21.4993C100.841 21.5286 100.767 21.5286 100.679 21.5286L100.076 21.5435V21.0724H100.679C100.767 21.0724 100.856 21.0724 100.914 21.1166C100.973 21.1461 101.017 21.2049 101.017 21.2932C101.017 21.3815 100.973 21.4551 100.914 21.4993V21.4993ZM98.516 21.6022H97.8685V21.0724H98.516C98.6926 21.0724 98.8103 21.1461 98.8103 21.3227C98.8103 21.4993 98.6925 21.6022 98.516 21.6022ZM96.6177 21.6757L97.3829 20.8665V22.5293L96.6177 21.6757ZM95.4258 22.2791H94.2045V21.8671H95.2934V21.4552H94.2045V21.0725H95.4406L95.985 21.6758L95.4258 22.2791V22.2791ZM106.079 19.1595H105.373L104.446 17.6144V19.1595H103.446L103.254 18.7033H102.224L102.033 19.1595H101.459C101.223 19.1595 100.914 19.1007 100.738 18.924C100.576 18.7475 100.488 18.5121 100.488 18.1442C100.488 17.8351 100.532 17.5556 100.753 17.3349C100.9 17.1729 101.165 17.0995 101.503 17.0995H101.974V17.541H101.503C101.326 17.541 101.223 17.5704 101.12 17.6587C101.032 17.747 100.988 17.9089 100.988 18.1295C100.988 18.3502 101.032 18.5122 101.12 18.6152C101.194 18.6887 101.326 18.7181 101.459 18.7181H101.68L102.386 17.0996H103.122L103.946 19.0419V17.0995H104.711L105.579 18.5268V17.0995H106.079V19.1595H106.079V19.1595ZM100.238 17.0995H99.7375V19.1595H100.238V17.0995V17.0995ZM99.1928 17.1878C99.0309 17.0995 98.8545 17.0995 98.6043 17.0995H97.4712V19.1595H97.9567V18.409H98.4865C98.6631 18.409 98.7809 18.4237 98.8544 18.4973C98.9427 18.6004 98.9278 18.777 98.9278 18.8947V19.1595H99.428V18.7475C99.428 18.5709 99.4134 18.4826 99.3399 18.3796C99.2957 18.3207 99.2074 18.2471 99.1045 18.203C99.2368 18.1442 99.4577 17.9823 99.4577 17.6586C99.4578 17.4232 99.3546 17.2907 99.1928 17.1878ZM97.118 18.7329H95.9703V18.3208H97.1033V17.8941H95.9703V17.5262H97.118V17.0996H95.47V19.1596H97.118V18.7329ZM95.1021 17.0995H94.2928L93.6895 18.4973L93.042 17.0995H92.2475V19.0418L91.4087 17.0995H90.673L89.7901 19.1595H90.3199L90.5111 18.7033H91.5411L91.7324 19.1595H92.733V17.541L93.454 19.1595H93.8806L94.6017 17.541V19.1595H95.102V17.0995H95.1021ZM103.078 18.2619L102.739 17.4526L102.401 18.2619H103.078ZM98.8103 17.9383C98.7368 17.9825 98.6632 17.9825 98.5602 17.9825H97.9567V17.5263H98.5601C98.6484 17.5263 98.7512 17.5263 98.8102 17.5558C98.869 17.5999 98.8985 17.6588 98.8985 17.747C98.8985 17.8353 98.8691 17.9087 98.8103 17.9383V17.9383ZM90.6876 18.2619L91.0261 17.4526L91.3646 18.2619H90.6876V18.2619ZM107.33 10.6396H89.7753V18.0559L90.3786 16.6875H91.6588L91.8354 17.026V16.6875H93.3363L93.6748 17.4232L93.9985 16.6875H98.7809C99.0014 16.6875 99.1927 16.7317 99.34 16.8493V16.6875H100.65V16.8493C100.87 16.7316 101.15 16.6875 101.474 16.6875H103.372L103.548 17.026V16.6875H104.946L105.152 17.026V16.6875H106.521V19.5716H105.138L104.873 19.1302V19.5716H103.151L102.96 19.1008H102.533L102.342 19.5716H101.444C101.091 19.5716 100.826 19.4833 100.65 19.3951V19.5716H98.516V18.9094C98.516 18.8211 98.5013 18.8064 98.4424 18.8064H98.3689V19.5715H94.2486V19.2036L94.1016 19.5715H93.2334L93.0863 19.2183V19.5715H91.4234L91.2469 19.1007H90.8201L90.6289 19.5715H89.7753V28.268H107.33V22.9853C107.139 23.0736 106.874 23.1178 106.609 23.1178H105.329V22.9411C105.182 23.059 104.917 23.1178 104.667 23.1178H100.635V22.4557C100.635 22.3674 100.62 22.3674 100.547 22.3674H100.473V23.1178H99.1487V22.3379C98.9281 22.4409 98.6778 22.4409 98.4571 22.4409H98.3099V23.1178H96.6913L96.3088 22.6763L95.8822 23.1178H93.2774V20.2338H95.9261L96.3087 20.6751L96.7208 20.2338H98.5013C98.7072 20.2338 99.0457 20.2631 99.1928 20.4102V20.2338H100.782C100.944 20.2338 101.253 20.2631 101.459 20.4102V20.2338H103.857V20.4103C103.99 20.2926 104.24 20.2339 104.461 20.2339H105.8V20.4103C105.947 20.3074 106.153 20.2339 106.418 20.2339H107.33V10.6396V10.6396Z" fill="#0077A6"/>
<g clip-path="url(#clip0_368_15)">
<path d="M76.175 29.105V29.1584H76.2248C76.2342 29.1586 76.2434 29.1562 76.2515 29.1516C76.2548 29.1493 76.2574 29.1462 76.2591 29.1427C76.2609 29.1391 76.2617 29.1351 76.2615 29.1312C76.2617 29.1273 76.2609 29.1234 76.2591 29.1199C76.2574 29.1164 76.2548 29.1135 76.2515 29.1113C76.2435 29.1064 76.2342 29.1041 76.2248 29.1045H76.175V29.105ZM76.2254 29.0672C76.2467 29.0659 76.2679 29.072 76.2852 29.0846C76.2921 29.0903 76.2976 29.0975 76.3013 29.1057C76.3049 29.1139 76.3066 29.1229 76.3061 29.1318C76.3065 29.1396 76.3051 29.1473 76.3022 29.1544C76.2993 29.1616 76.2949 29.168 76.2893 29.1734C76.276 29.185 76.2592 29.192 76.2415 29.1932L76.3083 29.2693H76.2569L76.1955 29.1938H76.1756V29.2693H76.1326V29.0673H76.226L76.2254 29.0672ZM76.212 29.339C76.2346 29.3392 76.2569 29.3347 76.2776 29.3257C76.2975 29.3171 76.3156 29.3048 76.331 29.2895C76.3464 29.2742 76.3586 29.2561 76.3671 29.2361C76.3847 29.1938 76.3847 29.1462 76.3671 29.1039C76.3585 29.084 76.3462 29.0659 76.331 29.0505C76.3156 29.0352 76.2975 29.0229 76.2776 29.0143C76.2568 29.0058 76.2345 29.0016 76.212 29.0018C76.1892 29.0016 76.1665 29.0058 76.1453 29.0143C76.1249 29.0228 76.1064 29.0351 76.0907 29.0505C76.067 29.0748 76.0511 29.1054 76.0447 29.1386C76.0384 29.1719 76.042 29.2062 76.055 29.2374C76.0631 29.2575 76.0753 29.2756 76.0907 29.2908C76.1064 29.3063 76.1249 29.3186 76.1453 29.327C76.1664 29.336 76.1891 29.3406 76.212 29.3404M76.212 28.9532C76.2707 28.9531 76.327 28.9762 76.3689 29.0173C76.3891 29.037 76.4051 29.0606 76.4161 29.0866C76.4276 29.1133 76.4334 29.142 76.4334 29.171C76.4334 29.2 76.4276 29.2288 76.4161 29.2555C76.4049 29.2813 76.3888 29.3048 76.3689 29.3247C76.3484 29.3444 76.3246 29.3602 76.2985 29.3715C76.2712 29.3831 76.2417 29.389 76.212 29.3888C76.182 29.389 76.1522 29.3831 76.1244 29.3715C76.0981 29.3605 76.074 29.3446 76.0535 29.3247C76.0336 29.3041 76.0178 29.2798 76.007 29.2532C75.9955 29.2265 75.9897 29.1978 75.9897 29.1687C75.9897 29.1397 75.9955 29.111 76.007 29.0843C76.018 29.0583 76.034 29.0348 76.0542 29.015C76.0744 28.9948 76.0986 28.9789 76.1251 28.9683C76.1528 28.9566 76.1826 28.9507 76.2127 28.9509M55.7698 28.1731C55.7698 27.788 56.0221 27.4716 56.4345 27.4716C56.8286 27.4716 57.0945 27.7744 57.0945 28.1731C57.0945 28.5719 56.8286 28.8747 56.4345 28.8747C56.0221 28.8747 55.7698 28.5583 55.7698 28.1731M57.5438 28.1731V27.0771H57.0673V27.3441C56.9162 27.1468 56.687 27.023 56.3752 27.023C55.7611 27.023 55.2791 27.5047 55.2791 28.1737C55.2791 28.8427 55.7608 29.3243 56.3752 29.3243C56.6868 29.3243 56.9162 29.2005 57.0673 29.0033V29.2693H57.5433V28.1731H57.5438ZM73.6434 28.1731C73.6434 27.788 73.8957 27.4716 74.3082 27.4716C74.7027 27.4716 74.9683 27.7744 74.9683 28.1731C74.9683 28.5719 74.7027 28.8747 74.3082 28.8747C73.8958 28.8747 73.6434 28.5583 73.6434 28.1731ZM75.4179 28.1731V26.1973H74.9411V27.3441C74.7899 27.1468 74.5607 27.023 74.249 27.023C73.6348 27.023 73.1529 27.5047 73.1529 28.1737C73.1529 28.8427 73.6346 29.3243 74.249 29.3243C74.5607 29.3243 74.7899 29.2005 74.9411 29.0033V29.2693H75.4179V28.1731ZM63.4575 27.449C63.7646 27.449 63.9618 27.6415 64.0121 27.9805H62.8752C62.926 27.6641 63.1181 27.449 63.4576 27.449M63.4671 27.0218C62.825 27.0218 62.3757 27.4891 62.3757 28.1725C62.3757 28.8692 62.843 29.3231 63.499 29.3231C63.8291 29.3231 64.1313 29.2408 64.3973 29.0161L64.1638 28.663C63.9801 28.8098 63.7461 28.8922 63.5263 28.8922C63.2192 28.8922 62.9396 28.75 62.8709 28.3555H64.4979C64.5026 28.2962 64.5074 28.2364 64.5074 28.1723C64.5026 27.4892 64.0802 27.0217 63.4669 27.0217M69.2196 28.1723C69.2196 27.7872 69.4719 27.4708 69.8843 27.4708C70.2784 27.4708 70.5443 27.7736 70.5443 28.1723C70.5443 28.5711 70.2784 28.8739 69.8843 28.8739C69.4719 28.8739 69.2194 28.5575 69.2194 28.1723M70.9935 28.1723V27.0771H70.5172V27.3441C70.3656 27.1468 70.1369 27.023 69.8252 27.023C69.211 27.023 68.7291 27.5047 68.7291 28.1737C68.7291 28.8427 69.2108 29.3243 69.8252 29.3243C70.1369 29.3243 70.3656 29.2005 70.5172 29.0033V29.2693H70.9936V28.1731L70.9935 28.1723ZM66.5288 28.1723C66.5288 28.8371 66.9915 29.323 67.6978 29.323C68.0278 29.323 68.2477 29.2496 68.4854 29.0617L68.2566 28.6766C68.0777 28.8051 67.8899 28.8739 67.6825 28.8739C67.3022 28.8692 67.0225 28.5942 67.0225 28.1723C67.0225 27.7505 67.3022 27.4756 67.6825 27.4708C67.8893 27.4708 68.0772 27.5395 68.2566 27.6681L68.4854 27.2829C68.2473 27.0951 68.0274 27.0217 67.6978 27.0217C66.9915 27.0217 66.5288 27.5075 66.5288 28.1723M72.6713 27.0217C72.3965 27.0217 72.2174 27.1502 72.0937 27.3427V27.0771H71.6215V29.2681H72.0985V28.0399C72.0985 27.6773 72.2543 27.4758 72.5657 27.4758C72.6677 27.4744 72.769 27.4931 72.8637 27.531L73.0106 27.0819C72.9051 27.0403 72.7676 27.0221 72.6711 27.0221M59.8995 27.2513C59.6703 27.1002 59.3544 27.0221 59.0059 27.0221C58.4508 27.0221 58.0934 27.2881 58.0934 27.7235C58.0934 28.0808 58.3595 28.3012 58.8495 28.3699L59.0746 28.402C59.3358 28.4387 59.4592 28.5074 59.4592 28.6312C59.4592 28.8006 59.2856 28.8973 58.9597 28.8973C58.6297 28.8973 58.3915 28.7918 58.2309 28.668L58.007 29.0396C58.2683 29.2321 58.5983 29.3239 58.9557 29.3239C59.5885 29.3239 59.9553 29.026 59.9553 28.6088C59.9553 28.2236 59.6666 28.0221 59.1898 27.9534L58.9652 27.9208C58.7589 27.8941 58.5937 27.8526 58.5937 27.7057C58.5937 27.5455 58.7495 27.4491 59.0109 27.4491C59.2906 27.4491 59.5613 27.5546 59.694 27.637L59.9003 27.2518L59.8995 27.2513ZM66.0475 27.0225C65.7726 27.0225 65.5936 27.151 65.4704 27.3435V27.0771H64.9982V29.2681H65.4746V28.0399C65.4746 27.6773 65.6304 27.4758 65.9419 27.4758C66.0439 27.4744 66.1452 27.4931 66.2399 27.531L66.3867 27.0819C66.2813 27.0403 66.1438 27.0221 66.0472 27.0221M61.9815 27.0771H61.2024V26.4123H60.7207V27.0771H60.2762V27.5126H60.7207V28.5121C60.7207 29.0205 60.918 29.3233 61.4816 29.3233C61.6884 29.3233 61.9266 29.2592 62.0777 29.1539L61.9401 28.7459C61.7979 28.8282 61.6421 28.8698 61.5182 28.8698C61.2801 28.8698 61.2024 28.7229 61.2024 28.503V27.513H61.9815V27.0771ZM54.8578 29.2687V27.8936C54.8578 27.3757 54.5278 27.0273 53.9958 27.0226C53.7161 27.0179 53.4276 27.105 53.2256 27.4124C53.0745 27.1694 52.8363 27.0226 52.5014 27.0226C52.2674 27.0226 52.0387 27.0913 51.8597 27.3479V27.0771H51.3828V29.2681H51.8634V28.0532C51.8634 27.6729 52.0744 27.4708 52.4001 27.4708C52.7165 27.4708 52.8766 27.677 52.8766 28.0484V29.2679H53.3583V28.053C53.3583 27.6726 53.5782 27.4705 53.8944 27.4705C54.2198 27.4705 54.3751 27.6768 54.3751 28.0482V29.2676L54.8578 29.2687Z" fill="#231F20"/>
<path d="M76.4464 21.9796V21.6592H76.363L76.2664 21.8791L76.1704 21.6592H76.0867V21.9796H76.146V21.7382L76.2363 21.9465H76.2977L76.3879 21.7377V21.9796H76.4467H76.4464ZM75.9171 21.9796V21.7141H76.0239V21.66H75.751V21.7141H75.8578V21.9796H75.9165H75.9171Z" fill="#F79410"/>
<path d="M66.9629 23.3546H59.7422V10.3779H66.9631L66.9629 23.3546Z" fill="#FF5F00"/>
<path d="M60.1998 16.8662C60.1998 14.2338 61.4323 11.889 63.3515 10.3778C61.8988 9.23228 60.1019 8.61056 58.2518 8.61329C53.6943 8.61329 50 12.3082 50 16.8662C50 21.4241 53.6943 25.119 58.2518 25.119C60.1019 25.1218 61.8989 24.5001 63.3517 23.3545C61.4325 21.8436 60.1998 19.4986 60.1998 16.8662Z" fill="#EB001B"/>
<path d="M76.7049 16.8662C76.7049 21.4241 73.0105 25.119 68.4531 25.119C66.6028 25.1217 64.8056 24.5 63.3525 23.3545C65.2723 21.8433 66.5049 19.4986 66.5049 16.8662C66.5049 14.2337 65.2723 11.889 63.3525 10.3778C64.8056 9.23232 66.6027 8.6106 68.453 8.61329C73.0104 8.61329 76.7047 12.3082 76.7047 16.8662" fill="#F79E1B"/>
</g>
<path d="M16.8745 24.0147H14.265L15.8959 13.9916H18.5057L16.8745 24.0147ZM12.0697 13.9916L9.58189 20.8856L9.2875 19.401L9.28777 19.4016L8.40971 14.8941C8.40971 14.8941 8.30353 13.9916 7.17184 13.9916H3.059L3.01074 14.1613C3.01074 14.1613 4.26845 14.423 5.74039 15.307L8.00754 24.015H10.7265L14.8782 13.9916H12.0697V13.9916ZM32.595 24.0147H34.9911L32.902 13.9913H30.8043C29.8356 13.9913 29.5996 14.7383 29.5996 14.7383L25.7077 24.0147H28.428L28.972 22.5259H32.2893L32.595 24.0147ZM29.7235 20.4692L31.0946 16.7183L31.866 20.4692H29.7235ZM25.9118 16.4019L26.2842 14.2495C26.2842 14.2495 25.135 13.8125 23.9371 13.8125C22.6421 13.8125 19.5669 14.3785 19.5669 17.1306C19.5669 19.7201 23.1762 19.7522 23.1762 21.1124C23.1762 22.4725 19.9388 22.2288 18.8704 21.3711L18.4824 23.6216C18.4824 23.6216 19.6476 24.1876 21.4279 24.1876C23.2087 24.1876 25.8951 23.2656 25.8951 20.7561C25.8951 18.15 22.2534 17.9074 22.2534 16.7743C22.2537 15.641 24.7951 15.7866 25.9118 16.4019V16.4019Z" fill="#2566AF"/>
<path d="M9.28679 19.4021L8.40873 14.8947C8.40873 14.8947 8.30256 13.9922 7.17086 13.9922H3.05803L3.00977 14.1619C3.00977 14.1619 4.98655 14.5716 6.88264 16.1065C8.69561 17.5736 9.28679 19.4021 9.28679 19.4021Z" fill="#E6A540"/>
<defs>
<clipPath id="clip0_368_15">
<rect width="26.7009" height="20.7733" fill="white" transform="translate(50 8.61328)"/>
</clipPath>
</defs>
</svg>
