<svg width="124" height="141" viewBox="0 0 124 141" fill="none" xmlns="http://www.w3.org/2000/svg">
<path d="M48.3854 72.3276V88.3112H32.4018V72.3276H48.3854ZM80.3526 72.3276V88.3112H64.369V72.3276H80.3526ZM112.32 72.3276V88.3112H96.3362V72.3276H112.32ZM128.303 16.385C132.543 16.385 136.608 18.069 139.606 21.0665C142.603 24.064 144.287 28.1295 144.287 32.3686V144.254C144.287 148.493 142.603 152.558 139.606 155.556C136.608 158.553 132.543 160.237 128.303 160.237H16.4182C12.1791 160.237 8.11357 158.553 5.11606 155.556C2.11855 152.558 0.43457 148.493 0.43457 144.254V32.3686C0.43457 28.1295 2.11855 24.064 5.11606 21.0665C8.11357 18.069 12.1791 16.385 16.4182 16.385H24.41V0.401367H40.3936V16.385H104.328V0.401367H120.312V16.385H128.303ZM128.303 144.254V56.344H16.4182V144.254H128.303ZM48.3854 104.295V120.278H32.4018V104.295H48.3854ZM80.3526 104.295V120.278H64.369V104.295H80.3526ZM112.32 104.295V120.278H96.3362V104.295H112.32Z" fill="url(#paint0_linear_190_147)"/>
<defs>
<linearGradient id="paint0_linear_190_147" x1="0.0657187" y1="108.229" x2="106.295" y2="18.967" gradientUnits="userSpaceOnUse">
<stop stop-color="#2F2F2F"/>
<stop offset="1" stop-color="#1C1C1C"/>
</linearGradient>
</defs>
</svg>
