<svg width="28" height="22" viewBox="0 0 28 22" fill="none" xmlns="http://www.w3.org/2000/svg">
<path d="M0 4C0 3.07174 0.368749 2.1815 1.02513 1.52513C1.6815 0.868749 2.57174 0.5 3.5 0.5H24.5C25.4283 0.5 26.3185 0.868749 26.9749 1.52513C27.6313 2.1815 28 3.07174 28 4V12.75H0V4ZM20.125 5.75C19.8929 5.75 19.6704 5.84219 19.5063 6.00628C19.3422 6.17038 19.25 6.39294 19.25 6.625V8.375C19.25 8.60706 19.3422 8.82962 19.5063 8.99372C19.6704 9.15781 19.8929 9.25 20.125 9.25H23.625C23.8571 9.25 24.0796 9.15781 24.2437 8.99372C24.4078 8.82962 24.5 8.60706 24.5 8.375V6.625C24.5 6.39294 24.4078 6.17038 24.2437 6.00628C24.0796 5.84219 23.8571 5.75 23.625 5.75H20.125ZM0 16.25V18C0 18.9283 0.368749 19.8185 1.02513 20.4749C1.6815 21.1313 2.57174 21.5 3.5 21.5H24.5C25.4283 21.5 26.3185 21.1313 26.9749 20.4749C27.6313 19.8185 28 18.9283 28 18V16.25H0Z" fill="#A4A4A4"/>
</svg>
