<svg width="73" height="45" viewBox="0 0 73 45" fill="none" xmlns="http://www.w3.org/2000/svg">
<rect x="0.41333" y="0.09375" width="71.92" height="44.64" rx="4.96" fill="#F2F2F2"/>
<path fill-rule="evenodd" clip-rule="evenodd" d="M21.8482 36.9543H21.7523C21.7523 36.9064 21.7283 36.8344 21.7283 36.8102C21.7283 36.7864 21.7283 36.7385 21.6563 36.7385H21.5122V36.9543H21.4401V36.4503H21.6563C21.7523 36.4503 21.8242 36.4745 21.8242 36.5702C21.8242 36.6423 21.8002 36.6664 21.7763 36.6901C21.8004 36.7143 21.8242 36.7383 21.8242 36.7864V36.8822C21.8242 36.9064 21.8242 36.9064 21.8482 36.9064V36.9543ZM21.7523 36.5944C21.7523 36.5223 21.7043 36.5223 21.6803 36.5223H21.5122V36.6664H21.6563C21.7043 36.6664 21.7523 36.6423 21.7523 36.5944ZM22.1604 36.6903C22.1604 36.4024 21.9204 36.1621 21.6082 36.1621C21.3202 36.1621 21.08 36.4024 21.08 36.6903C21.08 37.0023 21.3202 37.2427 21.6082 37.2427C21.9203 37.2425 22.1604 37.0023 22.1604 36.6903ZM22.0884 36.6903C22.0884 36.9545 21.8724 37.1464 21.6082 37.1464C21.344 37.1464 21.1521 36.9543 21.1521 36.6903C21.1521 36.4503 21.3442 36.2341 21.6082 36.2341C21.8722 36.2341 22.0884 36.4503 22.0884 36.6903ZM51.6667 26.991C51.6667 27.7114 51.2105 28.0471 50.3941 28.0471H48.8339V27.3267H50.3941C50.5382 27.3267 50.6583 27.3029 50.7065 27.255C50.7544 27.2068 50.8024 27.1348 50.8024 27.0389C50.8024 26.9426 50.7546 26.8467 50.7065 26.7989C50.6583 26.7507 50.5624 26.7268 50.4183 26.7268C49.6743 26.7026 48.7378 26.7507 48.7378 25.6944C48.7378 25.2141 49.0499 24.6859 49.8901 24.6859H51.4986V25.4062H50.01C49.8663 25.4062 49.77 25.4062 49.698 25.4541C49.6259 25.5262 49.5781 25.5982 49.5781 25.7183C49.5781 25.8384 49.6501 25.9104 49.746 25.9586C49.8423 25.9825 49.9383 26.0065 50.0584 26.0065H50.4904C50.9465 26.0065 51.2347 26.1024 51.4269 26.2707C51.5706 26.4386 51.6667 26.655 51.6667 26.991ZM48.2815 26.2707C48.0894 26.1024 47.8011 26.0065 47.345 26.0065H46.913C46.7931 26.0065 46.6969 25.9823 46.601 25.9586C46.5047 25.9104 46.433 25.8384 46.433 25.7183C46.433 25.5982 46.4569 25.5262 46.553 25.4541C46.625 25.4062 46.7209 25.4062 46.865 25.4062H48.3535V24.6859H46.7451C45.8806 24.6859 45.5924 25.2141 45.5924 25.6944C45.5924 26.7505 46.5289 26.7026 47.2733 26.7268C47.417 26.7268 47.5133 26.7507 47.5611 26.7989C47.609 26.8467 47.6574 26.9426 47.6574 27.0389C47.6574 27.1348 47.6092 27.2068 47.5611 27.255C47.4891 27.3029 47.3932 27.3267 47.2491 27.3267H45.6885V28.0471H47.2491C48.0652 28.0471 48.5215 27.7112 48.5215 26.991C48.5215 26.655 48.4256 26.4386 48.2815 26.2707ZM45.2083 27.3511H43.312V26.6788H45.1605V26.0068H43.312V25.3824H45.2083V24.6862H42.5196V28.0473H45.2083V27.3511ZM41.6552 24.8544C41.391 24.7103 41.079 24.6861 40.6708 24.6861H38.8224V28.0471H39.6385V26.8227H40.5029C40.7908 26.8227 40.9591 26.8469 41.0791 26.9668C41.2232 27.1348 41.2232 27.423 41.2232 27.6391V28.0471H42.0153V27.3988C42.0153 27.0867 41.9914 26.9426 41.8954 26.7747C41.8233 26.6785 41.6796 26.5585 41.4874 26.4865C41.7032 26.4148 42.0637 26.1266 42.0637 25.5982C42.0635 25.2143 41.9194 24.9981 41.6552 24.8544ZM37.0937 24.6861H34.5247L33.4923 25.7905L32.508 24.6861H29.2669V28.0471H32.4601L33.4925 26.9426L34.4769 28.0471H36.0375V26.919H37.0458C37.742 26.919 38.4385 26.7268 38.4385 25.7905C38.4383 24.8782 37.718 24.6861 37.0937 24.6861ZM41.0069 26.0787C40.887 26.1266 40.7669 26.1266 40.6228 26.1266L39.6385 26.1508V25.3822H40.6228C40.7669 25.3822 40.911 25.3822 41.0069 25.4543C41.1032 25.5025 41.1749 25.5984 41.1749 25.7425C41.1749 25.8866 41.1032 26.0067 41.0069 26.0787ZM37.0937 26.2467H36.0373V25.3822H37.0937C37.3819 25.3822 37.5739 25.5025 37.5739 25.7905C37.5739 26.0787 37.3817 26.2467 37.0937 26.2467ZM33.9965 26.3666L35.2449 25.0463V27.7592L33.9965 26.3666ZM32.0518 27.3511H30.0591V26.6788H31.8357V26.0068H30.0591V25.3824H32.0759L32.9641 26.3668L32.0518 27.3511ZM49.4338 22.2612H48.2815L46.7689 19.7403V22.2612H45.1366L44.8242 21.5169H43.1437L42.8317 22.2612H41.8952C41.5111 22.2612 41.0069 22.1651 40.7191 21.8769C40.4549 21.5889 40.3108 21.2048 40.3108 20.6046C40.3108 20.1004 40.3828 19.6442 40.7427 19.2841C40.9827 19.0199 41.415 18.9 41.9671 18.9H42.7353V19.6204H41.9671C41.6792 19.6204 41.5109 19.6684 41.343 19.8125C41.1989 19.9566 41.1268 20.2206 41.1268 20.5807C41.1268 20.9408 41.1989 21.205 41.343 21.3731C41.4629 21.493 41.6792 21.5411 41.895 21.5411H42.2553L43.4076 18.9002H44.6081L45.9525 22.0693V18.9H47.2011L48.6176 21.2288V18.9H49.4336V22.2612H49.4338ZM39.9026 18.9H39.0866V22.2612H39.9026V18.9ZM38.198 19.0441C37.9338 18.9 37.6459 18.9 37.2378 18.9H35.389V22.2612H36.1812V21.0367H37.0455C37.3337 21.0367 37.5258 21.0607 37.6457 21.1808C37.7898 21.3489 37.7656 21.6371 37.7656 21.8291V22.2612H38.5817V21.5889C38.5817 21.3009 38.5579 21.1568 38.438 20.9887C38.3659 20.8926 38.2218 20.7725 38.0539 20.7006C38.2697 20.6046 38.6301 20.3405 38.6301 19.8123C38.6303 19.4282 38.462 19.2121 38.198 19.0441ZM34.8128 21.5651H32.9401V20.8928H34.7887V20.1966H32.9401V19.5964H34.8128V18.9002H32.1239V22.2614H34.8128V21.5651ZM31.5236 18.9H30.2032L29.2189 21.1808L28.1625 18.9H26.8661V22.0691L25.4976 18.9H24.2973L22.8568 22.2612H23.721L24.0331 21.5169H25.7136L26.0256 22.2612H27.6583V19.6204L28.8346 22.2612H29.5307L30.7072 19.6204V22.2612H31.5235V18.9H31.5236ZM44.5364 20.7967L43.984 19.4763L43.4319 20.7967H44.5364ZM37.5739 20.2687C37.4539 20.3407 37.3339 20.3407 37.1657 20.3407H36.1812V19.5965H37.1656C37.3097 19.5965 37.4774 19.5965 37.5737 19.6446C37.6696 19.7166 37.7178 19.8127 37.7178 19.9566C37.7178 20.1005 37.6698 20.2205 37.5739 20.2687ZM24.3211 20.7967L24.8733 19.4763L25.4255 20.7967H24.3211ZM51.4747 8.36035H22.8326V20.4606L23.8169 18.2279H25.9055L26.1937 18.7801V18.2279H28.6426L29.1948 19.4282L29.723 18.2279H37.5258C37.8857 18.2279 38.1978 18.3 38.4381 18.4919V18.2279H40.5748V18.4919C40.9347 18.2998 41.3908 18.2279 41.9192 18.2279H45.0162L45.3044 18.7801V18.2279H47.5852L47.9214 18.7801V18.2279H50.154V22.9335H47.8974L47.4654 22.2134V22.9335H44.6563L44.3442 22.1653H43.6478L43.3357 22.9335H41.8714C41.2951 22.9335 40.8628 22.7894 40.575 22.6455V22.9335H37.0937V21.8531C37.0937 21.709 37.0697 21.685 36.9736 21.685H36.8537V22.9333H30.1312V22.3331L29.8912 22.9333H28.4747L28.2347 22.3571V22.9333H25.5216L25.2336 22.1651H24.5373L24.2252 22.9333H22.8326V37.1224H51.4747V28.5032C51.1627 28.6473 50.7304 28.7194 50.2982 28.7194H48.2094V28.4312C47.9694 28.6235 47.5371 28.7194 47.1292 28.7194H40.5508V27.6391C40.5508 27.495 40.5269 27.495 40.4067 27.495H40.2867V28.7194H38.1259V27.447C37.766 27.6149 37.3577 27.6149 36.9976 27.6149H36.7575V28.7194H34.1166L33.4925 27.999L32.7964 28.7194H28.5466V24.0139H32.8681L33.4923 24.7339L34.1646 24.0139H37.0697C37.4056 24.0139 37.958 24.0618 38.198 24.3018V24.0139H40.7908C41.0549 24.0139 41.5593 24.0618 41.8952 24.3018V24.0139H45.8086V24.302C46.0248 24.1098 46.433 24.0141 46.7929 24.0141H48.9776V24.302C49.218 24.134 49.5539 24.0141 49.9862 24.0141H51.4747V8.36035Z" fill="#0077A6"/>
</svg>
