<svg width="72" height="45" viewBox="0 0 72 45" fill="none" xmlns="http://www.w3.org/2000/svg">
<rect y="0.09375" width="71.92" height="44.64" rx="4.96" fill="#F2F2F2"/>
<g clip-path="url(#clip0_283_2)">
<path d="M30.8373 30.1828H26.5796L29.2406 13.8293H33.4987L30.8373 30.1828ZM22.9978 13.8293L18.9388 25.0774L18.4585 22.6552L18.4589 22.6561L17.0263 15.3018C17.0263 15.3018 16.853 13.8293 15.0066 13.8293H8.29618L8.21744 14.1062C8.21744 14.1062 10.2695 14.5332 12.6711 15.9754L16.3701 30.1832H20.8062L27.5801 13.8293H22.9978ZM56.4865 30.1828H60.3959L56.9873 13.8289H53.5648C51.9843 13.8289 51.5993 15.0476 51.5993 15.0476L45.2494 30.1828H49.6877L50.5753 27.7536H55.9878L56.4865 30.1828ZM51.8014 24.398L54.0385 18.2781L55.2971 24.398H51.8014ZM45.5823 17.762L46.1899 14.2501C46.1899 14.2501 44.315 13.5371 42.3605 13.5371C40.2476 13.5371 35.2301 14.4606 35.2301 18.9509C35.2301 23.1758 41.119 23.2283 41.119 25.4474C41.119 27.6666 35.8369 27.269 34.0936 25.8696L33.4607 29.5415C33.4607 29.5415 35.3618 30.4649 38.2664 30.4649C41.1719 30.4649 45.5551 28.9606 45.5551 24.8661C45.5551 20.6141 39.6133 20.2182 39.6133 18.3696C39.6138 16.5205 43.7603 16.758 45.5823 17.762Z" fill="#2566AF"/>
<path d="M18.4589 22.6549L17.0263 15.3006C17.0263 15.3006 16.853 13.8281 15.0066 13.8281H8.29618L8.21744 14.105C8.21744 14.105 11.4427 14.7734 14.5363 17.2778C17.4943 19.6715 18.4589 22.6549 18.4589 22.6549Z" fill="#E6A540"/>
</g>
<defs>
<clipPath id="clip0_283_2">
<rect width="72" height="45" fill="white"/>
</clipPath>
</defs>
</svg>
