<svg width="73" height="45" viewBox="0 0 73 45" fill="none" xmlns="http://www.w3.org/2000/svg">
<rect x="0.706665" y="0.09375" width="71.92" height="44.64" rx="4.96" fill="#F2F2F2"/>
<g clip-path="url(#clip0_287_3)">
<path d="M57.4662 38.4874V38.5745H57.5475C57.5627 38.5747 57.5778 38.5709 57.5911 38.5634C57.5964 38.5596 57.6006 38.5546 57.6035 38.5488C57.6063 38.543 57.6077 38.5365 57.6074 38.5301C57.6077 38.5237 57.6063 38.5174 57.6035 38.5117C57.6006 38.506 57.5963 38.5012 57.5911 38.4976C57.5779 38.4897 57.5628 38.4858 57.5475 38.4865H57.4662V38.4874ZM57.5484 38.4257C57.5832 38.4236 57.6177 38.4336 57.646 38.454C57.6573 38.4633 57.6663 38.4751 57.6722 38.4885C57.6782 38.5019 57.6809 38.5165 57.6802 38.5311C57.6807 38.5437 57.6785 38.5563 57.6738 38.568C57.669 38.5797 57.6618 38.5902 57.6527 38.5989C57.6309 38.6178 57.6035 38.6292 57.5747 38.6313L57.6836 38.7555H57.5998L57.4996 38.6322H57.4671V38.7555H57.397V38.4259H57.5495L57.5484 38.4257ZM57.5266 38.8692C57.5634 38.8696 57.5998 38.8621 57.6335 38.8474C57.666 38.8334 57.6956 38.8134 57.7207 38.7884C57.7458 38.7634 57.7658 38.7338 57.7797 38.7013C57.8083 38.6322 57.8083 38.5547 57.7797 38.4856C57.7656 38.4532 57.7456 38.4236 57.7207 38.3985C57.6956 38.3735 57.666 38.3535 57.6335 38.3395C57.5996 38.3256 57.5632 38.3186 57.5266 38.319C57.4893 38.3186 57.4523 38.3256 57.4177 38.3395C57.3844 38.3532 57.3542 38.3732 57.3286 38.3985C57.2901 38.438 57.264 38.488 57.2537 38.5422C57.2433 38.5964 57.2491 38.6525 57.2704 38.7034C57.2837 38.7361 57.3035 38.7658 57.3286 38.7906C57.3542 38.8158 57.3845 38.8358 57.4177 38.8496C57.4521 38.8643 57.4892 38.8717 57.5266 38.8714M57.5266 38.2397C57.6223 38.2396 57.7142 38.2772 57.7825 38.3442C57.8154 38.3765 57.8417 38.4149 57.8596 38.4573C57.8783 38.5008 57.8879 38.5477 57.8879 38.5951C57.8879 38.6424 57.8783 38.6893 57.8596 38.7328C57.8412 38.775 57.8151 38.8134 57.7825 38.8459C57.7491 38.8779 57.7102 38.9038 57.6677 38.9221C57.6231 38.9411 57.5751 38.9507 57.5266 38.9505C57.4775 38.9508 57.4289 38.9412 57.3837 38.9221C57.3407 38.9042 57.3015 38.8783 57.268 38.8459C57.2355 38.8122 57.2097 38.7726 57.192 38.7291C57.1734 38.6856 57.1638 38.6387 57.1638 38.5914C57.1638 38.544 57.1734 38.4971 57.192 38.4536C57.21 38.4112 57.2362 38.3728 57.2691 38.3405C57.3021 38.3076 57.3415 38.2816 57.3848 38.2643C57.43 38.2453 57.4786 38.2356 57.5277 38.236M24.1735 36.967C24.1735 36.3385 24.5851 35.8223 25.258 35.8223C25.901 35.8223 26.3349 36.3163 26.3349 36.967C26.3349 37.6176 25.901 38.1116 25.258 38.1116C24.5851 38.1116 24.1735 37.5954 24.1735 36.967ZM27.0679 36.967V35.1786H26.2905V35.6143C26.0439 35.2923 25.6699 35.0904 25.1613 35.0904C24.1593 35.0904 23.373 35.8763 23.373 36.9678C23.373 38.0593 24.1589 38.8452 25.1613 38.8452C25.6697 38.8452 26.0439 38.6431 26.2905 38.3214V38.7555H27.067V36.967H27.0679ZM53.3357 36.967C53.3357 36.3385 53.7473 35.8223 54.4204 35.8223C55.0641 35.8223 55.4973 36.3163 55.4973 36.967C55.4973 37.6176 55.0641 38.1116 54.4204 38.1116C53.7476 38.1116 53.3357 37.5954 53.3357 36.967ZM56.231 36.967V33.7432H55.4529V35.6143C55.2063 35.2923 54.8323 35.0904 54.3237 35.0904C53.3217 35.0904 52.5354 35.8763 52.5354 36.9678C52.5354 38.0593 53.3213 38.8452 54.3237 38.8452C54.8323 38.8452 55.2063 38.6431 55.4529 38.3214V38.7555H56.231V36.967ZM36.7166 35.7855C37.2176 35.7855 37.5393 36.0996 37.6214 36.6526H35.7665C35.8494 36.1364 36.1629 35.7855 36.7168 35.7855M36.7323 35.0884C35.6846 35.0884 34.9516 35.8508 34.9516 36.9659C34.9516 38.1027 35.714 38.8433 36.7843 38.8433C37.3228 38.8433 37.816 38.7089 38.2499 38.3423L37.8689 37.7661C37.5692 38.0058 37.1875 38.1401 36.8288 38.1401C36.3278 38.1401 35.8717 37.9082 35.7595 37.2645H38.4141C38.4217 37.1678 38.4296 37.0702 38.4296 36.9656C38.4217 35.851 37.7325 35.0882 36.7319 35.0882M46.1179 36.9656C46.1179 36.3372 46.5296 35.821 47.2024 35.821C47.8454 35.821 48.2793 36.315 48.2793 36.9656C48.2793 37.6163 47.8454 38.1103 47.2024 38.1103C46.5296 38.1103 46.1176 37.5941 46.1176 36.9656M49.0121 36.9656V35.1786H48.2351V35.6143C47.9877 35.2923 47.6145 35.0904 47.1059 35.0904C46.1039 35.0904 45.3176 35.8763 45.3176 36.9678C45.3176 38.0593 46.1035 38.8452 47.1059 38.8452C47.6145 38.8452 47.9877 38.6431 48.2351 38.3214V38.7555H49.0123V36.967L49.0121 36.9656ZM41.7276 36.9656C41.7276 38.0502 42.4826 38.8431 43.6349 38.8431C44.1734 38.8431 44.5321 38.7233 44.9201 38.4168L44.5467 37.7884C44.2548 37.9981 43.9483 38.1103 43.6101 38.1103C42.9895 38.1027 42.5331 37.654 42.5331 36.9656C42.5331 36.2773 42.9895 35.8288 43.6101 35.821C43.9475 35.821 44.2539 35.9332 44.5467 36.1429L44.9201 35.5145C44.5315 35.208 44.1727 35.0882 43.6349 35.0882C42.4826 35.0882 41.7276 35.8809 41.7276 36.9656ZM51.7497 35.0882C51.3012 35.0882 51.0091 35.298 50.8072 35.6121V35.1786H50.0367V38.7535H50.815V36.7496C50.815 36.158 51.0692 35.8293 51.5774 35.8293C51.7438 35.8269 51.909 35.8574 52.0636 35.9192L52.3032 35.1865C52.1311 35.1187 51.9067 35.0889 51.7493 35.0889M30.9114 35.4629C30.5374 35.2163 30.022 35.0889 29.4535 35.0889C28.5478 35.0889 27.9647 35.523 27.9647 36.2333C27.9647 36.8162 28.3988 37.1758 29.1982 37.288L29.5655 37.3403C29.9917 37.4002 30.193 37.5124 30.193 37.7143C30.193 37.9907 29.9098 38.1484 29.3781 38.1484C28.8397 38.1484 28.4511 37.9763 28.189 37.7744L27.8237 38.3806C28.25 38.6947 28.7885 38.8446 29.3716 38.8446C30.4041 38.8446 31.0024 38.3584 31.0024 37.6777C31.0024 37.0493 30.5315 36.7206 29.7534 36.6084L29.3871 36.5553C29.0505 36.5117 28.7809 36.444 28.7809 36.2044C28.7809 35.943 29.0351 35.7857 29.4616 35.7857C29.9179 35.7857 30.3596 35.9578 30.5762 36.0922L30.9127 35.4638L30.9114 35.4629ZM40.9424 35.0895C40.4939 35.0895 40.2018 35.2993 40.0007 35.6134V35.1786H39.2303V38.7535H40.0077V36.7496C40.0077 36.158 40.2619 35.8293 40.7701 35.8293C40.9365 35.8269 41.1017 35.8574 41.2563 35.9192L41.4959 35.1865C41.3238 35.1187 41.0994 35.0889 40.9419 35.0889M34.3083 35.1786H33.0371V34.0941H32.2512V35.1786H31.5261V35.8892H32.2512V37.52C32.2512 38.3495 32.5732 38.8435 33.4928 38.8435C33.8302 38.8435 34.2188 38.7389 34.4654 38.5671L34.2408 37.9014C34.0088 38.0358 33.7546 38.1036 33.5525 38.1036C33.1639 38.1036 33.0371 37.864 33.0371 37.5052V35.8898H34.3083V35.1786ZM22.6855 38.7544V36.5108C22.6855 35.6659 22.147 35.0974 21.279 35.0898C20.8227 35.0821 20.352 35.2241 20.0224 35.7258C19.7758 35.3294 19.3872 35.0898 18.8409 35.0898C18.4591 35.0898 18.0859 35.2019 17.7938 35.6206V35.1786H17.0158V38.7535H17.7999V36.7713C17.7999 36.1508 18.1441 35.821 18.6756 35.821C19.1918 35.821 19.453 36.1575 19.453 36.7635V38.7531H20.2389V36.7709C20.2389 36.1503 20.5977 35.8205 21.1137 35.8205C21.6445 35.8205 21.8979 36.1571 21.8979 36.7631V38.7527L22.6855 38.7544Z" fill="#231F20"/>
<path d="M57.9095 26.8626V26.3398H57.7734L57.6159 26.6986L57.4593 26.3398H57.3227V26.8626H57.4194V26.4688L57.5667 26.8086H57.6669L57.8141 26.4679V26.8626H57.91H57.9095ZM57.0459 26.8626V26.4294H57.2201V26.3412H56.7749V26.4294H56.9492V26.8626H57.045H57.0459Z" fill="#F79410"/>
<path d="M42.436 29.1051H30.6548V7.93262H42.4362L42.436 29.1051Z" fill="#FF5F00"/>
<path d="M31.4017 18.5189C31.4017 14.2241 33.4127 10.3982 36.5441 7.9327C34.1738 6.06366 31.242 5.04927 28.2235 5.05373C20.7876 5.05373 14.76 11.0822 14.76 18.5189C14.76 25.9556 20.7876 31.9841 28.2235 31.9841C31.2421 31.9886 34.1739 30.9742 36.5443 29.1051C33.4131 26.64 31.4017 22.814 31.4017 18.5189Z" fill="#EB001B"/>
<path d="M58.3302 18.5189C58.3302 25.9556 52.3026 31.9841 44.8667 31.9841C41.8478 31.9885 38.9156 30.9742 36.5448 29.1051C39.6771 26.6396 41.688 22.814 41.688 18.5189C41.688 14.2239 39.6771 10.3982 36.5448 7.9327C38.9156 6.06371 41.8476 5.04934 44.8665 5.05373C52.3023 5.05373 58.3299 11.0822 58.3299 18.5189" fill="#F79E1B"/>
</g>
<defs>
<clipPath id="clip0_287_3">
<rect width="43.5647" height="33.8933" fill="white" transform="translate(14.76 5.05371)"/>
</clipPath>
</defs>
</svg>
