<svg width="589" height="589" viewBox="0 0 589 589" fill="none" xmlns="http://www.w3.org/2000/svg">
<g clip-path="url(#clip0_190_634)">
<path d="M0.059082 110.32C0.059082 49.3918 49.4509 0 110.379 0H117.977V20.0849C117.977 74.1165 74.1756 117.918 20.144 117.918H0.059082V110.32Z" fill="#EBE9FF"/>
<path d="M117.977 81.9887C117.977 36.7076 154.684 0 199.965 0H235.718V117.741H117.977V81.9887Z" fill="#71DB2B"/>
<path d="M330.794 0C376.076 0 412.783 36.7076 412.783 81.9888V117.741L295.042 117.741V0L330.794 0Z" fill="#71DB2B"/>
<path d="M0 117.741H20.2616C74.1956 117.741 117.918 161.463 117.918 215.397V235.659H110.32C49.3918 235.659 0 186.267 0 125.339V117.741Z" fill="#71DB2B"/>
<path d="M117.917 117.741H235.659V159.796C235.659 201.629 201.746 235.541 159.913 235.541H117.917V117.741Z" fill="#EBE9FF"/>
<path d="M235.776 235.541H353.576V294.5C353.576 327.029 327.206 353.4 294.676 353.4C262.147 353.4 235.776 327.029 235.776 294.5V235.541Z" fill="#EBE9FF"/>
<path d="M353.636 353.282H339.618C282.3 353.282 235.836 399.747 235.836 457.064V471.2H353.636V353.282Z" fill="#71DB2B"/>
<path d="M235.659 471.023H353.459V481.567C353.459 540.901 305.36 589 246.026 589H235.659V471.023Z" fill="#F2F2F2"/>
<path d="M353.459 581.343C353.459 520.415 402.851 471.023 463.779 471.023H471.2V500.179C471.2 549.168 431.486 588.882 382.497 588.882H353.459V581.343Z" fill="#EBE9FF"/>
<path d="M471.612 463.484C471.612 402.556 422.221 353.164 361.293 353.164H353.871V382.32C353.871 431.309 393.585 471.023 442.575 471.023H471.612V463.484Z" fill="#EBE9FF"/>
<path d="M471.318 235.541H589.059V294.412C589.059 326.925 562.702 353.282 530.189 353.282C497.676 353.282 471.318 326.925 471.318 294.412V235.541Z" fill="#71DB2B"/>
<circle cx="412.506" cy="294.53" r="58.8705" transform="rotate(-180 412.506 294.53)" fill="#71DB2B"/>
<circle cx="295.001" cy="176.789" r="58.8705" transform="rotate(-180 295.001 176.789)" fill="#EBE9FF"/>
<circle cx="530.248" cy="530.129" r="58.8705" transform="rotate(-180 530.248 530.129)" fill="#71DB2B"/>
</g>
<defs>
<clipPath id="clip0_190_634">
<rect width="589" height="589" fill="white"/>
</clipPath>
</defs>
</svg>
