<svg width="33" height="33" viewBox="0 0 33 33" fill="none" xmlns="http://www.w3.org/2000/svg">
<path d="M19.5935 1.33984V13.4055H31.6591C30.4216 7.32109 25.6778 2.57734 19.5935 1.33984ZM13.406 31.6586V19.593H1.34033C2.57783 25.6773 7.32158 30.4211 13.406 31.6586Z" fill="#C94747"/>
<path d="M19.5935 19.593V31.6586C25.6778 30.4211 30.4216 25.6773 31.6591 19.593H19.5935ZM1.34033 13.4055H13.406V1.33984C7.32158 2.57734 2.57783 7.32109 1.34033 13.4055Z" fill="#2A5F9E"/>
<path d="M31.6594 13.4062H19.5938V1.34062C18.6141 1.13437 17.5828 1.03125 16.5 1.03125C15.4172 1.03125 14.3859 1.13437 13.4062 1.34062V13.4062H1.34062C1.13437 14.3859 1.03125 15.4172 1.03125 16.5C1.03125 17.5828 1.13437 18.6141 1.34062 19.5938H13.4062V31.6594C14.3859 31.8656 15.4172 31.9688 16.5 31.9688C17.5828 31.9688 18.6141 31.8656 19.5938 31.6594V19.5938H31.6594C31.8656 18.6141 31.9688 17.5828 31.9688 16.5C31.9688 15.4172 31.8656 14.3859 31.6594 13.4062Z" fill="#F9F9F9"/>
<path d="M14.9531 15.1078C14.9531 15.1078 14.7469 15.0563 14.5406 15.0563C14.6953 14.85 14.7469 14.4375 14.7469 14.4375C14.7469 14.4375 14.3859 14.6437 14.2828 14.85C14.2313 14.6953 14.0766 14.5406 14.0766 14.5406C14.0766 14.5406 13.9219 14.7469 13.9219 14.9016C13.9219 15.0562 14.1797 15.3141 14.1797 15.3141C14.1797 15.3141 14.4891 15.4172 14.6953 15.3656C14.85 15.3656 14.9531 15.1078 14.9531 15.1078Z" fill="#699635"/>
<path d="M14.6436 15.6229C14.6436 15.6229 14.4374 15.6229 14.2311 15.6744C14.2827 15.4166 14.2311 15.0557 14.2311 15.0557C14.2311 15.0557 13.9733 15.3135 13.8702 15.5713L13.6124 15.3135C13.6124 15.3135 13.5093 15.5197 13.5608 15.6744C13.6124 15.8291 13.9218 16.0354 13.9218 16.0354C13.9218 16.0354 14.2827 16.0354 14.4374 15.9322C14.5921 15.8807 14.6436 15.6229 14.6436 15.6229" fill="#83BF4F"/>
<path d="M14.4895 16.1906C14.4895 16.1906 14.2832 16.2422 14.1285 16.3453C14.1285 16.0875 13.9738 15.7266 13.9738 15.7266C13.9738 15.7266 13.7676 16.0875 13.7676 16.2938C13.6129 16.1906 13.4582 16.1391 13.4582 16.1391C13.4582 16.1391 13.4066 16.3969 13.5098 16.5C13.6129 16.6547 13.9223 16.7578 13.9223 16.7578C13.9223 16.7578 14.2316 16.6547 14.3863 16.5516C14.4895 16.3969 14.4895 16.1906 14.4895 16.1906" fill="#699635"/>
<path d="M14.4375 16.7584C14.4375 16.7584 14.2312 16.8615 14.1281 16.9646C14.0766 16.7068 13.8187 16.3975 13.8187 16.3975C13.8187 16.3975 13.7156 16.7584 13.7672 17.0162C13.6125 17.0162 13.4062 16.9646 13.4062 16.9646C13.4062 16.9646 13.4062 17.2225 13.5609 17.3256C13.7156 17.4287 14.025 17.4803 14.025 17.4803C14.025 17.4803 14.3344 17.3256 14.3859 17.1709C14.5406 17.0162 14.4375 16.7584 14.4375 16.7584" fill="#83BF4F"/>
<path d="M14.5922 17.3256C14.5922 17.3256 14.4375 17.4803 14.3344 17.635C14.2312 17.4287 13.9219 17.1709 13.9219 17.1709C13.9219 17.1709 13.9219 17.5834 14.025 17.7896H13.6641C13.6641 17.7896 13.7156 17.9959 13.9219 18.099C14.0766 18.1506 14.4375 18.099 14.4375 18.099C14.4375 18.099 14.6953 17.8412 14.7469 17.6865C14.6953 17.5318 14.5922 17.3256 14.5922 17.3256" fill="#699635"/>
<path d="M14.8496 17.8398C14.8496 17.8398 14.7465 18.0461 14.6949 18.2008C14.5402 17.9945 14.1793 17.8914 14.1793 17.8914C14.1793 17.8914 14.2824 18.2523 14.4371 18.4586C14.2824 18.5102 14.0762 18.5617 14.0762 18.5617C14.0762 18.5617 14.2309 18.768 14.3855 18.768C14.5402 18.768 14.8496 18.6648 14.8496 18.6648C14.8496 18.6648 15.0043 18.3555 15.0043 18.2008C15.0559 17.9945 14.8496 17.8398 14.8496 17.8398Z" fill="#83BF4F"/>
<path d="M15.2621 18.3047C15.2621 18.3047 15.2105 18.5109 15.2105 18.6656C15.0043 18.5109 14.5918 18.5109 14.5918 18.5109C14.5918 18.5109 14.798 18.8203 15.0043 18.975C14.8496 19.0266 14.6949 19.1813 14.6949 19.1813C14.6949 19.1813 14.9012 19.3359 15.0559 19.3359C15.2105 19.3359 15.4684 19.0781 15.4684 19.0781C15.4684 19.0781 15.5715 18.7688 15.5199 18.5625C15.4684 18.4078 15.2621 18.3047 15.2621 18.3047Z" fill="#699635"/>
<path d="M15.7781 18.6133C15.7781 18.6133 15.7781 18.8195 15.8297 19.0258C15.5719 18.9742 15.2109 19.0258 15.2109 19.0258C15.2109 19.0258 15.4688 19.2836 15.7266 19.3867L15.4688 19.6445C15.4688 19.6445 15.675 19.7477 15.8297 19.6961C15.9844 19.6445 16.1906 19.3352 16.1906 19.3352C16.1906 19.3352 16.1906 18.9742 16.0875 18.8711C15.9844 18.768 15.7781 18.6133 15.7781 18.6133Z" fill="#83BF4F"/>
<path d="M18.0981 15.1078C18.0981 15.1078 18.3044 15.0563 18.5106 15.0563C18.356 14.85 18.3044 14.4375 18.3044 14.4375C18.3044 14.4375 18.6653 14.6437 18.7685 14.85C18.82 14.6953 18.9747 14.5406 18.9747 14.5406C18.9747 14.5406 19.1294 14.6953 19.1294 14.9016C19.1294 15.0562 18.8716 15.3141 18.8716 15.3141C18.8716 15.3141 18.5622 15.4172 18.356 15.3656C18.1497 15.3141 18.0981 15.1078 18.0981 15.1078" fill="#699635"/>
<path d="M18.4082 15.6229C18.4082 15.6229 18.6145 15.6229 18.8207 15.6744C18.7176 15.4166 18.8207 15.0557 18.8207 15.0557C18.8207 15.0557 19.0785 15.3135 19.1816 15.5713L19.4395 15.3135C19.4395 15.3135 19.5426 15.5197 19.491 15.6744C19.4395 15.8291 19.1301 16.0354 19.1301 16.0354C19.1301 16.0354 18.7691 16.0354 18.6145 15.9322C18.4598 15.8807 18.4082 15.6229 18.4082 15.6229Z" fill="#83BF4F"/>
<path d="M18.5625 16.1906C18.5625 16.1906 18.7688 16.2422 18.9234 16.3453C18.9234 16.0875 19.0781 15.7266 19.0781 15.7266C19.0781 15.7266 19.2844 16.0875 19.2844 16.2938C19.4391 16.1906 19.5938 16.1391 19.5938 16.1391C19.5938 16.1391 19.6453 16.3969 19.5422 16.5C19.4391 16.6547 19.1297 16.7578 19.1297 16.7578C19.1297 16.7578 18.8203 16.6547 18.6656 16.5516C18.5625 16.3969 18.5625 16.1906 18.5625 16.1906" fill="#699635"/>
<path d="M18.6142 16.7584C18.6142 16.7584 18.8205 16.8615 18.9236 16.9646C18.9752 16.7068 19.233 16.3975 19.233 16.3975C19.233 16.3975 19.3361 16.7584 19.2846 17.0162C19.4392 16.9646 19.6455 16.9646 19.6455 16.9646C19.6455 16.9646 19.6455 17.2225 19.4908 17.3256C19.3361 17.4287 19.0267 17.4803 19.0267 17.4803C19.0267 17.4803 18.7174 17.3256 18.6658 17.1709C18.5111 17.0162 18.6142 16.7584 18.6142 16.7584" fill="#83BF4F"/>
<path d="M18.4593 17.3256C18.4593 17.3256 18.614 17.4803 18.7172 17.635C18.8203 17.4287 19.1297 17.1709 19.1297 17.1709C19.1297 17.1709 19.1297 17.5834 19.0265 17.7896H19.3875C19.3875 17.7896 19.3359 17.9959 19.1297 18.099C18.975 18.1506 18.614 18.099 18.614 18.099C18.614 18.099 18.3562 17.8412 18.3047 17.6865C18.2531 17.5318 18.4593 17.3256 18.4593 17.3256" fill="#699635"/>
<path d="M18.2015 17.8398C18.2015 17.8398 18.3047 18.0461 18.3562 18.2008C18.5109 17.9945 18.8718 17.8914 18.8718 17.8914C18.8718 17.8914 18.7687 18.2523 18.614 18.4586C18.7687 18.5102 18.975 18.5617 18.975 18.5617C18.975 18.5617 18.8203 18.768 18.6656 18.768C18.5109 18.768 18.2015 18.6648 18.2015 18.6648C18.2015 18.6648 18.0468 18.3555 18.0468 18.2008C17.9953 17.9945 18.2015 17.8398 18.2015 17.8398Z" fill="#83BF4F"/>
<path d="M17.7893 18.3047C17.7893 18.3047 17.8409 18.5109 17.8409 18.6656C18.0472 18.5109 18.4597 18.5109 18.4597 18.5109C18.4597 18.5109 18.2534 18.8203 18.0472 18.975C18.2018 19.0266 18.3565 19.1813 18.3565 19.1813C18.3565 19.1813 18.1503 19.3359 17.9956 19.3359C17.8409 19.3359 17.5831 19.0781 17.5831 19.0781C17.5831 19.0781 17.48 18.7688 17.5315 18.5625C17.5831 18.4078 17.7893 18.3047 17.7893 18.3047" fill="#699635"/>
<path d="M17.2738 18.6133C17.2738 18.6133 17.2738 18.8195 17.2223 19.0258C17.4801 18.9742 17.841 19.0258 17.841 19.0258C17.841 19.0258 17.5832 19.2836 17.3254 19.3867L17.5832 19.6445C17.5832 19.6445 17.377 19.7477 17.2223 19.6961C17.0676 19.6445 16.8613 19.3352 16.8613 19.3352C16.8613 19.3352 16.8613 18.9742 16.9645 18.8711C17.0676 18.6133 17.2738 18.6133 17.2738 18.6133Z" fill="#83BF4F"/>
<path d="M14.9535 15.0053V17.4803C14.9535 17.6865 14.9535 17.8412 15.0566 17.9959C15.1598 18.099 15.2629 18.2021 15.4176 18.2537H16.0363C16.3457 18.2537 16.3457 18.3053 16.4488 18.46C16.552 18.2537 16.7066 18.2537 16.9645 18.2537H17.4801C17.6348 18.2021 17.7379 18.1506 17.7895 18.0475C17.9441 17.8928 17.9441 17.6865 17.9441 17.4803V15.1084C17.9441 15.0053 17.9441 15.0053 17.9957 14.9537L18.3566 14.5928H14.541L14.9535 15.0053" fill="white"/>
<path d="M16.1387 16.0881V14.5928H14.5918L15.0043 15.0053V16.0881H16.1387Z" fill="#002D62"/>
<path d="M16.8094 16.0881V14.5928H18.4078L17.9953 15.0053V16.0881H16.8094ZM16.1391 16.7068H14.9531V17.6865C15.0047 18.099 15.3141 18.2537 15.5719 18.2537H16.1391V16.7068Z" fill="#CE1126"/>
<path d="M16.8098 16.7059H17.9957V17.6856C17.9441 18.0981 17.6348 18.2528 17.377 18.2528H16.8098V16.7059M15.5723 13.3544C15.1082 13.3544 14.5926 13.4575 14.2316 13.7153C14.0254 13.8184 14.0254 13.87 14.1285 14.0762L13.8707 14.1794C13.716 14.2309 13.5613 14.2825 13.4066 14.3856C13.3035 14.4372 13.3035 14.4887 13.252 14.5403L13.6129 14.4887L13.5613 14.5919C13.5098 14.695 13.4582 14.7465 13.4066 14.8497C13.5098 14.7981 13.6129 14.695 13.716 14.6434C13.9738 14.4887 14.4895 14.4887 14.6957 14.2825C14.7473 14.2309 14.6957 14.1794 14.6957 14.0762C14.8504 14.0247 14.902 13.9731 15.0566 13.9731C15.5207 13.87 15.7785 13.9731 15.9848 13.9215C16.0363 13.9215 16.1395 13.87 16.1395 13.8184L16.0879 13.6122H16.8098C16.8098 13.7153 16.7066 13.9215 16.9129 13.9731C17.1191 14.0247 17.5316 13.9215 17.841 14.0247L18.202 14.1278L18.1504 14.2309V14.334C18.202 14.3856 18.2535 14.4372 18.3051 14.4372C18.4082 14.4887 18.5629 14.5403 18.7176 14.5919C19.1301 14.695 19.1816 14.695 19.491 14.9012C19.491 14.8497 19.3363 14.6434 19.2848 14.5403L19.6457 14.5919C19.5941 14.4887 19.3879 14.3856 19.2848 14.334L18.8207 14.1794C18.8723 14.0762 18.9238 14.0247 18.8723 13.9731C18.8207 13.87 18.4082 13.6637 18.3051 13.6637C18.1504 13.6122 17.9441 13.5606 17.7895 13.5606C17.6348 13.509 17.3254 13.509 17.3254 13.509C17.3254 13.509 17.377 13.3544 17.2738 13.2512C17.2223 13.1997 17.1191 13.1997 17.016 13.1997C16.6551 13.1481 16.191 13.1997 15.8301 13.1997C15.727 13.1997 15.6754 13.1997 15.5723 13.2512V13.3544" fill="#002D62"/>
<path d="M14.9534 18.975C14.7472 19.0266 14.644 19.0781 14.4378 19.1813C14.3862 19.0781 14.2831 18.9234 14.18 18.8203L14.0253 18.6656C13.9222 18.6141 13.8706 18.6141 13.819 18.6656L13.7675 18.5625C13.6644 18.4078 13.5612 18.3047 13.4581 18.2016L13.4065 18.15L13.355 18.0984C13.4065 18.2531 13.4065 18.3563 13.4581 18.5109C13.4065 18.4594 13.355 18.4594 13.3034 18.4078C13.2519 18.4078 13.1487 18.3562 13.0972 18.3562L13.1487 18.4078C13.2519 18.5109 13.355 18.6656 13.4065 18.8203C13.4581 18.975 13.5612 19.1813 13.7159 19.2844C13.7159 19.2844 13.819 19.3875 13.8706 19.3875C14.0253 19.4391 14.0253 19.3875 14.0769 19.3359C14.18 19.5422 14.2315 19.5937 14.3862 19.7484C14.5409 19.9031 14.7472 19.9031 14.9019 19.9031C15.005 19.9031 15.0565 19.8516 15.1081 19.8C15.3659 19.6453 15.2112 19.5422 15.2112 19.4391C15.3144 19.4391 15.6237 19.3359 15.7269 19.2844C16.1394 19.2328 16.8612 19.1813 17.3253 19.2844C17.3769 19.2844 17.8409 19.4391 17.8925 19.4391C17.8409 19.5422 17.8409 19.5422 17.8409 19.6453C17.8409 19.7484 17.944 19.7484 17.9956 19.8C18.0472 19.8516 18.0987 19.8516 18.2019 19.9031H18.4597C18.6144 19.8516 18.7175 19.7484 18.8206 19.6969C18.9237 19.5422 18.9753 19.4391 19.0784 19.3359L19.13 19.3875H19.2331C19.2847 19.3875 19.3362 19.3359 19.3878 19.2844C19.5425 19.1813 19.6456 18.975 19.6972 18.8203C19.7487 18.6141 19.8519 18.5109 20.0065 18.3562C19.8003 18.3562 19.7487 18.4078 19.6456 18.4594L19.6972 18.2531C19.6972 18.2016 19.7487 18.0984 19.7487 18.0469C19.6456 18.15 19.594 18.2531 19.4909 18.3562C19.4394 18.4078 19.3878 18.4594 19.3878 18.5109C19.2847 18.6141 19.3362 18.6141 19.2847 18.6656C19.0269 18.5109 18.8722 18.8719 18.6659 19.1297C18.305 18.9234 17.9956 18.8719 17.5831 18.7688C17.48 18.7688 17.4284 18.7687 17.3253 18.7172C16.8097 18.6656 16.2425 18.6656 15.7269 18.7172C15.3659 18.8719 15.1597 18.9234 14.9534 18.975" fill="#CE1126"/>
<path d="M16.3453 14.4883V14.7977H15.9844V15.107H16.3453V16.3445H16.6547V15.107H16.9641V14.7977H16.6547V14.4883H16.3453Z" fill="#EAC102"/>
<path d="M15.4175 16.6023L16.8097 15.7773L17.5831 16.8602L16.0878 17.8398L15.4175 16.6023Z" fill="#201B18"/>
<path d="M15.5723 16.3461L16.7582 15.6758L17.377 16.5523L16.1395 17.3773L15.5723 16.3461Z" fill="#C9C9C9"/>
</svg>
