<svg width="124" height="141" viewBox="0 0 124 141" fill="none" xmlns="http://www.w3.org/2000/svg">
<path d="M48.025 72.8198V88.8034H32.0414V72.8198H48.025ZM79.9922 72.8198V88.8034H64.0086V72.8198H79.9922ZM111.959 72.8198V88.8034H95.9759V72.8198H111.959ZM127.943 16.8772C132.182 16.8772 136.248 18.5611 139.245 21.5587C142.243 24.5562 143.927 28.6217 143.927 32.8608V144.746C143.927 148.985 142.243 153.051 139.245 156.048C136.248 159.046 132.182 160.73 127.943 160.73H16.0578C11.8187 160.73 7.75321 159.046 4.75571 156.048C1.7582 153.051 0.0742188 148.985 0.0742188 144.746V32.8608C0.0742188 28.6217 1.7582 24.5562 4.75571 21.5587C7.75321 18.5611 11.8187 16.8772 16.0578 16.8772H24.0496V0.893555H40.0332V16.8772H103.968V0.893555H119.951V16.8772H127.943ZM127.943 144.746V56.8362H16.0578V144.746H127.943ZM48.025 104.787V120.771H32.0414V104.787H48.025ZM79.9922 104.787V120.771H64.0086V104.787H79.9922ZM111.959 104.787V120.771H95.9759V104.787H111.959Z" fill="#56A720"/>
</svg>
