<svg width="94" height="94" viewBox="0 0 94 94" fill="none" xmlns="http://www.w3.org/2000/svg">
<g filter="url(#filter0_d_224_1080)">
<g clip-path="url(#clip0_224_1080)">
<path d="M51.3124 21.8691V38.6879H68.1312C66.4062 30.2066 59.7937 23.5941 51.3124 21.8691ZM42.6874 64.1316V47.3129H25.8687C27.5937 55.7941 34.2062 62.4066 42.6874 64.1316Z" fill="#C94747"/>
<path d="M51.3124 47.3129V64.1316C59.7937 62.4066 66.4062 55.7941 68.1312 47.3129H51.3124ZM25.8687 38.6879H42.6874V21.8691C34.2062 23.5941 27.5937 30.2066 25.8687 38.6879Z" fill="#2A5F9E"/>
<path d="M68.1313 38.6875H51.3125V21.8687C49.9469 21.5812 48.5094 21.4375 47 21.4375C45.4906 21.4375 44.0531 21.5812 42.6875 21.8687V38.6875H25.8687C25.5812 40.0531 25.4375 41.4906 25.4375 43C25.4375 44.5094 25.5812 45.9469 25.8687 47.3125H42.6875V64.1313C44.0531 64.4188 45.4906 64.5625 47 64.5625C48.5094 64.5625 49.9469 64.4188 51.3125 64.1313V47.3125H68.1313C68.4188 45.9469 68.5625 44.5094 68.5625 43C68.5625 41.4906 68.4188 40.0531 68.1313 38.6875Z" fill="#F9F9F9"/>
<path d="M44.8438 41.0594C44.8438 41.0594 44.5563 40.9875 44.2688 40.9875C44.4844 40.7 44.5563 40.125 44.5563 40.125C44.5563 40.125 44.0531 40.4125 43.9094 40.7C43.8375 40.4844 43.6219 40.2688 43.6219 40.2688C43.6219 40.2688 43.4062 40.5562 43.4062 40.7719C43.4062 40.9875 43.7656 41.3469 43.7656 41.3469C43.7656 41.3469 44.1969 41.4906 44.4844 41.4187C44.7 41.4187 44.8438 41.0594 44.8438 41.0594Z" fill="#699635"/>
<path d="M44.4123 41.7779C44.4123 41.7779 44.1248 41.7779 43.8373 41.8498C43.9092 41.4904 43.8373 40.9873 43.8373 40.9873C43.8373 40.9873 43.4779 41.3467 43.3342 41.7061L42.9748 41.3467C42.9748 41.3467 42.8311 41.6342 42.9029 41.8498C42.9748 42.0654 43.4061 42.3529 43.4061 42.3529C43.4061 42.3529 43.9092 42.3529 44.1248 42.2092C44.3404 42.1373 44.4123 41.7779 44.4123 41.7779Z" fill="#83BF4F"/>
<path d="M44.1967 42.5687C44.1967 42.5687 43.9092 42.6406 43.6936 42.7844C43.6936 42.425 43.4779 41.9219 43.4779 41.9219C43.4779 41.9219 43.1904 42.425 43.1904 42.7125C42.9748 42.5688 42.7592 42.4969 42.7592 42.4969C42.7592 42.4969 42.6873 42.8562 42.8311 43C42.9748 43.2156 43.4061 43.3594 43.4061 43.3594C43.4061 43.3594 43.8373 43.2156 44.0529 43.0719C44.1967 42.8562 44.1967 42.5687 44.1967 42.5687Z" fill="#699635"/>
<path d="M44.125 43.3596C44.125 43.3596 43.8375 43.5033 43.6937 43.6471C43.6219 43.2877 43.2625 42.8564 43.2625 42.8564C43.2625 42.8564 43.1188 43.3596 43.1906 43.7189C42.975 43.7189 42.6875 43.6471 42.6875 43.6471C42.6875 43.6471 42.6875 44.0064 42.9031 44.1502C43.1187 44.2939 43.55 44.3658 43.55 44.3658C43.55 44.3658 43.9812 44.1502 44.0531 43.9346C44.2687 43.7189 44.125 43.3596 44.125 43.3596Z" fill="#83BF4F"/>
<path d="M44.3406 44.1502C44.3406 44.1502 44.125 44.3658 43.9812 44.5814C43.8375 44.2939 43.4062 43.9346 43.4062 43.9346C43.4062 43.9346 43.4063 44.5096 43.55 44.7971H43.0469C43.0469 44.7971 43.1187 45.0846 43.4062 45.2283C43.6219 45.3002 44.125 45.2283 44.125 45.2283C44.125 45.2283 44.4844 44.8689 44.5563 44.6533C44.4844 44.4377 44.3406 44.1502 44.3406 44.1502Z" fill="#699635"/>
<path d="M44.7002 44.8691C44.7002 44.8691 44.5564 45.1566 44.4846 45.3723C44.2689 45.0848 43.7658 44.941 43.7658 44.941C43.7658 44.941 43.9096 45.4441 44.1252 45.7316C43.9096 45.8035 43.6221 45.8754 43.6221 45.8754C43.6221 45.8754 43.8377 46.1629 44.0533 46.1629C44.2689 46.1629 44.7002 46.0191 44.7002 46.0191C44.7002 46.0191 44.9158 45.5879 44.9158 45.3723C44.9877 45.0848 44.7002 44.8691 44.7002 44.8691Z" fill="#83BF4F"/>
<path d="M45.2752 45.5156C45.2752 45.5156 45.2033 45.8031 45.2033 46.0188C44.9158 45.8031 44.3408 45.8031 44.3408 45.8031C44.3408 45.8031 44.6283 46.2344 44.9158 46.45C44.7002 46.5219 44.4846 46.7375 44.4846 46.7375C44.4846 46.7375 44.7721 46.9531 44.9877 46.9531C45.2033 46.9531 45.5627 46.5938 45.5627 46.5938C45.5627 46.5938 45.7064 46.1625 45.6346 45.875C45.5627 45.6594 45.2752 45.5156 45.2752 45.5156Z" fill="#699635"/>
<path d="M45.9938 45.9473C45.9938 45.9473 45.9938 46.2348 46.0656 46.5223C45.7063 46.4504 45.2031 46.5223 45.2031 46.5223C45.2031 46.5223 45.5625 46.8816 45.9219 47.0254L45.5625 47.3848C45.5625 47.3848 45.85 47.5285 46.0656 47.4566C46.2813 47.3848 46.5687 46.9535 46.5687 46.9535C46.5687 46.9535 46.5688 46.4504 46.425 46.3066C46.2813 46.1629 45.9938 45.9473 45.9938 45.9473Z" fill="#83BF4F"/>
<path d="M49.228 41.0594C49.228 41.0594 49.5155 40.9875 49.803 40.9875C49.5874 40.7 49.5155 40.125 49.5155 40.125C49.5155 40.125 50.0187 40.4125 50.1624 40.7C50.2343 40.4844 50.4499 40.2688 50.4499 40.2688C50.4499 40.2688 50.6655 40.4844 50.6655 40.7719C50.6655 40.9875 50.3062 41.3469 50.3062 41.3469C50.3062 41.3469 49.8749 41.4906 49.5874 41.4187C49.2999 41.3469 49.228 41.0594 49.228 41.0594Z" fill="#699635"/>
<path d="M49.6592 41.7779C49.6592 41.7779 49.9467 41.7779 50.2342 41.8498C50.0904 41.4904 50.2342 40.9873 50.2342 40.9873C50.2342 40.9873 50.5936 41.3467 50.7373 41.7061L51.0967 41.3467C51.0967 41.3467 51.2404 41.6342 51.1686 41.8498C51.0967 42.0654 50.6654 42.3529 50.6654 42.3529C50.6654 42.3529 50.1623 42.3529 49.9467 42.2092C49.7311 42.1373 49.6592 41.7779 49.6592 41.7779Z" fill="#83BF4F"/>
<path d="M49.875 42.5687C49.875 42.5687 50.1625 42.6406 50.3781 42.7844C50.3781 42.425 50.5938 41.9219 50.5938 41.9219C50.5938 41.9219 50.8813 42.425 50.8813 42.7125C51.0969 42.5688 51.3125 42.4969 51.3125 42.4969C51.3125 42.4969 51.3844 42.8562 51.2406 43C51.0969 43.2156 50.6656 43.3594 50.6656 43.3594C50.6656 43.3594 50.2344 43.2156 50.0188 43.0719C49.875 42.8562 49.875 42.5687 49.875 42.5687Z" fill="#699635"/>
<path d="M49.9468 43.3596C49.9468 43.3596 50.2343 43.5033 50.3781 43.6471C50.45 43.2877 50.8093 42.8564 50.8093 42.8564C50.8093 42.8564 50.9531 43.3596 50.8812 43.7189C51.0968 43.6471 51.3843 43.6471 51.3843 43.6471C51.3843 43.6471 51.3843 44.0064 51.1687 44.1502C50.9531 44.2939 50.5218 44.3658 50.5218 44.3658C50.5218 44.3658 50.0906 44.1502 50.0187 43.9346C49.8031 43.7189 49.9468 43.3596 49.9468 43.3596Z" fill="#83BF4F"/>
<path d="M49.7311 44.1502C49.7311 44.1502 49.9467 44.3658 50.0904 44.5814C50.2342 44.2939 50.6654 43.9346 50.6654 43.9346C50.6654 43.9346 50.6654 44.5096 50.5217 44.7971H51.0248C51.0248 44.7971 50.9529 45.0846 50.6654 45.2283C50.4498 45.3002 49.9467 45.2283 49.9467 45.2283C49.9467 45.2283 49.5873 44.8689 49.5154 44.6533C49.4436 44.4377 49.7311 44.1502 49.7311 44.1502Z" fill="#699635"/>
<path d="M49.3717 44.8691C49.3717 44.8691 49.5154 45.1566 49.5873 45.3723C49.8029 45.0848 50.3061 44.941 50.3061 44.941C50.3061 44.941 50.1623 45.4441 49.9467 45.7316C50.1623 45.8035 50.4498 45.8754 50.4498 45.8754C50.4498 45.8754 50.2342 46.1629 50.0186 46.1629C49.8029 46.1629 49.3717 46.0191 49.3717 46.0191C49.3717 46.0191 49.1561 45.5879 49.1561 45.3723C49.0842 45.0848 49.3717 44.8691 49.3717 44.8691Z" fill="#83BF4F"/>
<path d="M48.797 45.5156C48.797 45.5156 48.8689 45.8031 48.8689 46.0188C49.1564 45.8031 49.7314 45.8031 49.7314 45.8031C49.7314 45.8031 49.4439 46.2344 49.1564 46.45C49.372 46.5219 49.5876 46.7375 49.5876 46.7375C49.5876 46.7375 49.3001 46.9531 49.0845 46.9531C48.8689 46.9531 48.5095 46.5938 48.5095 46.5938C48.5095 46.5938 48.3657 46.1625 48.4376 45.875C48.5095 45.6594 48.797 45.5156 48.797 45.5156Z" fill="#699635"/>
<path d="M48.0779 45.9473C48.0779 45.9473 48.0779 46.2348 48.0061 46.5223C48.3654 46.4504 48.8686 46.5223 48.8686 46.5223C48.8686 46.5223 48.5092 46.8816 48.1498 47.0254L48.5092 47.3848C48.5092 47.3848 48.2217 47.5285 48.0061 47.4566C47.7904 47.3848 47.5029 46.9535 47.5029 46.9535C47.5029 46.9535 47.5029 46.4504 47.6467 46.3066C47.7904 45.9473 48.0779 45.9473 48.0779 45.9473Z" fill="#83BF4F"/>
<path d="M44.8436 40.9158V44.3658C44.8436 44.6533 44.8436 44.8689 44.9873 45.0846C45.1311 45.2283 45.2748 45.3721 45.4904 45.4439H46.3529C46.7842 45.4439 46.7842 45.5158 46.9279 45.7314C47.0717 45.4439 47.2873 45.4439 47.6467 45.4439H48.3654C48.5811 45.3721 48.7248 45.3002 48.7967 45.1564C49.0123 44.9408 49.0123 44.6533 49.0123 44.3658V41.0596C49.0123 40.9158 49.0123 40.9158 49.0842 40.8439L49.5873 40.3408H44.2686L44.8436 40.9158Z" fill="white"/>
<path d="M46.4971 42.4252V40.3408H44.3408L44.9158 40.9158V42.4252H46.4971Z" fill="#002D62"/>
<path d="M47.4312 42.4252V40.3408H49.6594L49.0844 40.9158V42.4252H47.4312ZM46.4969 43.2877H44.8438V44.6533C44.9156 45.2283 45.3469 45.4439 45.7063 45.4439H46.4969V43.2877Z" fill="#CE1126"/>
<path d="M47.4311 43.2876H49.0842V44.6532C49.0123 45.2282 48.5811 45.4439 48.2217 45.4439H47.4311V43.2876ZM45.7061 38.6157C45.0592 38.6157 44.3404 38.7595 43.8373 39.1189C43.5498 39.2626 43.5498 39.3345 43.6936 39.622L43.3342 39.7657C43.1186 39.8376 42.9029 39.9095 42.6873 40.0532C42.5436 40.1251 42.5436 40.197 42.4717 40.2689L42.9748 40.197L42.9029 40.3407C42.8311 40.4845 42.7592 40.5564 42.6873 40.7001C42.8311 40.6282 42.9748 40.4845 43.1186 40.4126C43.4779 40.197 44.1967 40.197 44.4842 39.9095C44.5561 39.8376 44.4842 39.7657 44.4842 39.622C44.6998 39.5501 44.7717 39.4782 44.9873 39.4782C45.6342 39.3345 45.9936 39.4782 46.2811 39.4064C46.3529 39.4064 46.4967 39.3345 46.4967 39.2626L46.4248 38.9751H47.4311C47.4311 39.1189 47.2873 39.4064 47.5748 39.4782C47.8623 39.5501 48.4373 39.4064 48.8686 39.5501L49.3717 39.6939L49.2998 39.8376V39.9814C49.3717 40.0532 49.4436 40.1251 49.5154 40.1251C49.6592 40.197 49.8748 40.2689 50.0904 40.3407C50.6654 40.4845 50.7373 40.4845 51.1686 40.772C51.1686 40.7001 50.9529 40.4126 50.8811 40.2689L51.3842 40.3407C51.3123 40.197 51.0248 40.0532 50.8811 39.9814L50.2342 39.7657C50.3061 39.622 50.3779 39.5501 50.3061 39.4782C50.2342 39.3345 49.6592 39.047 49.5154 39.047C49.2998 38.9751 49.0123 38.9032 48.7967 38.9032C48.5811 38.8314 48.1498 38.8314 48.1498 38.8314C48.1498 38.8314 48.2217 38.6157 48.0779 38.472C48.0061 38.4001 47.8623 38.4001 47.7186 38.4001C47.2154 38.3282 46.5686 38.4001 46.0654 38.4001C45.9217 38.4001 45.8498 38.4001 45.7061 38.472V38.6157Z" fill="#002D62"/>
<path d="M44.8438 46.45C44.5563 46.5219 44.4126 46.5938 44.1251 46.7375C44.0532 46.5938 43.9095 46.3781 43.7657 46.2344L43.5501 46.0188C43.4063 45.9469 43.3345 45.9469 43.2626 46.0188L43.1907 45.875C43.047 45.6594 42.9032 45.5156 42.7595 45.3719L42.6876 45.3L42.6157 45.2281C42.6876 45.4437 42.6876 45.5875 42.7595 45.8031C42.6876 45.7313 42.6157 45.7313 42.5438 45.6594C42.472 45.6594 42.3282 45.5875 42.2563 45.5875L42.3282 45.6594C42.472 45.8031 42.6157 46.0188 42.6876 46.2344C42.7595 46.45 42.9032 46.7375 43.1188 46.8813C43.1188 46.8813 43.2626 47.025 43.3345 47.025C43.5501 47.0969 43.5501 47.025 43.622 46.9531C43.7657 47.2406 43.8376 47.3125 44.0532 47.5281C44.2688 47.7437 44.5563 47.7437 44.772 47.7437C44.9157 47.7437 44.9876 47.6719 45.0595 47.6C45.4188 47.3844 45.2032 47.2406 45.2032 47.0969C45.347 47.0969 45.7782 46.9531 45.922 46.8813C46.497 46.8094 47.5032 46.7375 48.1501 46.8813C48.222 46.8813 48.8688 47.0969 48.9407 47.0969C48.8688 47.2406 48.8688 47.2406 48.8688 47.3844C48.8688 47.5281 49.0126 47.5281 49.0845 47.6C49.1563 47.6719 49.2282 47.6719 49.372 47.7437H49.7313C49.947 47.6719 50.0907 47.5281 50.2345 47.4563C50.3782 47.2406 50.4501 47.0969 50.5938 46.9531L50.6657 47.025H50.8095C50.8813 47.025 50.9532 46.9531 51.0251 46.8813C51.2407 46.7375 51.3845 46.45 51.4563 46.2344C51.5282 45.9469 51.672 45.8031 51.8876 45.5875C51.6001 45.5875 51.5282 45.6594 51.3845 45.7312L51.4563 45.4438C51.4563 45.3719 51.5282 45.2281 51.5282 45.1562C51.3845 45.3 51.3126 45.4437 51.1688 45.5875C51.097 45.6594 51.0251 45.7313 51.0251 45.8031C50.8813 45.9469 50.9532 45.9469 50.8813 46.0188C50.522 45.8031 50.3063 46.3062 50.0188 46.6656C49.5157 46.3781 49.0845 46.3063 48.5095 46.1625C48.3657 46.1625 48.2938 46.1625 48.1501 46.0906C47.4313 46.0187 46.6407 46.0187 45.922 46.0906C45.4188 46.3062 45.1313 46.3781 44.8438 46.45Z" fill="#CE1126"/>
<path d="M46.7844 40.1973V40.6285H46.2812V41.0598H46.7844V42.7848H47.2156V41.0598H47.6469V40.6285H47.2156V40.1973H46.7844Z" fill="#EAC102"/>
<path d="M45.4907 43.1441L47.4313 41.9941L48.5095 43.5035L46.4251 44.8691L45.4907 43.1441Z" fill="#201B18"/>
<path d="M45.7061 42.784L47.3592 41.8496L48.2217 43.0715L46.4967 44.2215L45.7061 42.784Z" fill="#C9C9C9"/>
<circle opacity="0.15" cx="47" cy="43" r="23" fill="#F2F2F2"/>
</g>
</g>
<defs>
<filter id="filter0_d_224_1080" x="0" y="0" width="94" height="94" filterUnits="userSpaceOnUse" color-interpolation-filters="sRGB">
<feFlood flood-opacity="0" result="BackgroundImageFix"/>
<feColorMatrix in="SourceAlpha" type="matrix" values="0 0 0 0 0 0 0 0 0 0 0 0 0 0 0 0 0 0 127 0" result="hardAlpha"/>
<feOffset dy="4"/>
<feGaussianBlur stdDeviation="12"/>
<feComposite in2="hardAlpha" operator="out"/>
<feColorMatrix type="matrix" values="0 0 0 0 0 0 0 0 0 0 0 0 0 0 0 0 0 0 0.09 0"/>
<feBlend mode="normal" in2="BackgroundImageFix" result="effect1_dropShadow_224_1080"/>
<feBlend mode="normal" in="SourceGraphic" in2="effect1_dropShadow_224_1080" result="shape"/>
</filter>
<clipPath id="clip0_224_1080">
<rect x="24" y="20" width="46" height="46" rx="23" fill="white"/>
</clipPath>
</defs>
</svg>
