<svg width="94" height="94" viewBox="0 0 94 94" fill="none" xmlns="http://www.w3.org/2000/svg">
<g filter="url(#filter0_d_224_1109)">
<g clip-path="url(#clip0_224_1109)">
<path d="M58.5 24.7437C55.1219 22.6594 51.2406 21.4375 47 21.4375V24.7437H58.5Z" fill="#ED4C5C"/>
<path d="M47 28.0504H62.525C61.3031 26.8285 59.9375 25.6785 58.5 24.7441H47V28.0504Z" fill="white"/>
<path d="M47 31.3561H65.1844C64.3937 30.1342 63.5312 29.0561 62.5969 28.0498H47V31.3561Z" fill="#ED4C5C"/>
<path d="M47 34.6627H66.9094C66.4062 33.5127 65.8312 32.3627 65.1844 31.3564H47V34.6627Z" fill="white"/>
<path d="M47 37.9684H67.9875C67.7 36.8184 67.3406 35.7402 66.9094 34.6621H47V37.9684Z" fill="#ED4C5C"/>
<path d="M47 41.3473H68.4906C68.4188 40.1973 68.2031 39.1191 67.9875 38.041H47V41.3473Z" fill="white"/>
<path d="M68.4906 41.3467H47V42.9998H25.4375C25.4375 43.5748 25.4375 44.0779 25.5094 44.6529H68.4906C68.5625 44.0779 68.5625 43.5748 68.5625 42.9998C68.5625 42.4248 68.5625 41.8498 68.4906 41.3467Z" fill="#ED4C5C"/>
<path d="M26.0124 47.9596H67.9874C68.2749 46.8814 68.4187 45.8033 68.4905 44.6533H25.5093C25.5812 45.7314 25.7249 46.8814 26.0124 47.9596Z" fill="white"/>
<path d="M27.0903 51.2652H66.9091C67.3403 50.1871 67.6997 49.109 67.9872 47.959H26.0122C26.2997 49.109 26.6591 50.1871 27.0903 51.2652Z" fill="#ED4C5C"/>
<path d="M28.8153 54.5719H65.1841C65.831 53.4937 66.406 52.4156 66.9091 51.2656H27.0903C27.5935 52.4156 28.1685 53.4937 28.8153 54.5719Z" fill="white"/>
<path d="M31.4034 57.8785H62.5972C63.5315 56.8723 64.4659 55.7223 65.1847 54.5723H28.8159C29.5347 55.7941 30.469 56.8723 31.4034 57.8785Z" fill="#ED4C5C"/>
<path d="M35.4278 61.1842H58.5716C60.081 60.2498 61.3747 59.0998 62.5966 57.8779H31.4028C32.6247 59.1717 33.9903 60.2498 35.4278 61.1842Z" fill="white"/>
<path d="M47.0001 64.5627C51.2407 64.5627 55.1938 63.3408 58.572 61.1846H35.4282C38.8063 63.3408 42.7595 64.5627 47.0001 64.5627Z" fill="#ED4C5C"/>
<path d="M35.5 24.7437C33.9906 25.6781 32.625 26.8281 31.4031 28.05C30.3969 29.0562 29.5344 30.2063 28.8156 31.3562C28.1687 32.4344 27.5219 33.5125 27.0906 34.6625C26.6594 35.7406 26.3 36.8188 26.0125 37.9688C25.725 39.0469 25.5812 40.125 25.5094 41.275C25.4375 41.85 25.4375 42.425 25.4375 43H47V21.4375C42.7594 21.4375 38.8781 22.6594 35.5 24.7437Z" fill="#428BC1"/>
<path d="M41.9688 22.1562L42.3282 23.2344H43.4063L42.5438 23.9531L42.8313 25.0312L41.9688 24.3844L41.1063 25.0312L41.3938 23.9531L40.5313 23.2344H41.6095L41.9688 22.1562ZM44.8438 26.4688L45.2032 27.5469H46.2813L45.4188 28.2656L45.7063 29.3438L44.8438 28.6969L43.9813 29.3438L44.2688 28.2656L43.4063 27.5469H44.4845L44.8438 26.4688ZM39.0938 26.4688L39.4532 27.5469H40.5313L39.6688 28.2656L39.9563 29.3438L39.0938 28.6969L38.2313 29.3438L38.5188 28.2656L37.6563 27.5469H38.7345L39.0938 26.4688ZM41.9688 30.7812L42.3282 31.8594H43.4063L42.5438 32.5781L42.8313 33.6562L41.9688 33.0094L41.1063 33.6562L41.3938 32.5781L40.5313 31.8594H41.6095L41.9688 30.7812ZM36.2188 30.7812L36.5782 31.8594H37.6563L36.7938 32.5781L37.0813 33.6562L36.2188 33.0094L35.3563 33.6562L35.6438 32.5781L34.7813 31.8594H35.8595L36.2188 30.7812ZM30.4688 30.7812L30.8282 31.8594H31.9063L31.0438 32.5781L31.3313 33.6562L30.4688 33.0094L29.6063 33.6562L29.8938 32.5781L29.0313 31.8594H30.1095L30.4688 30.7812ZM44.8438 35.0938L45.2032 36.1719H46.2813L45.4188 36.8906L45.7063 37.9688L44.8438 37.3219L43.9813 37.9688L44.2688 36.8906L43.4063 36.1719H44.4845L44.8438 35.0938ZM39.0938 35.0938L39.4532 36.1719H40.5313L39.6688 36.8906L39.9563 37.9688L39.0938 37.3219L38.2313 37.9688L38.5188 36.8906L37.6563 36.1719H38.7345L39.0938 35.0938ZM33.3438 35.0938L33.7032 36.1719H34.7813L33.9188 36.8906L34.2063 37.9688L33.3438 37.3219L32.4813 37.9688L32.7688 36.8906L31.9063 36.1719H32.9845L33.3438 35.0938ZM41.9688 39.4062L42.3282 40.4844H43.4063L42.5438 41.2031L42.8313 42.2812L41.9688 41.6344L41.1063 42.2812L41.3938 41.2031L40.5313 40.4844H41.6095L41.9688 39.4062ZM36.2188 39.4062L36.5782 40.4844H37.6563L36.7938 41.2031L37.0813 42.2812L36.2188 41.6344L35.3563 42.2812L35.6438 41.2031L34.7813 40.4844H35.8595L36.2188 39.4062ZM30.4688 39.4062L30.8282 40.4844H31.9063L31.0438 41.2031L31.3313 42.2812L30.4688 41.6344L29.6063 42.2812L29.8938 41.2031L29.0313 40.4844H30.1095L30.4688 39.4062ZM32.4813 29.3438L33.3438 28.6969L34.2063 29.3438L33.847 28.2656L34.7095 27.5469H33.6313L33.3438 26.4688L32.9845 27.5469H31.9782L32.8407 28.1937L32.4813 29.3438ZM26.7313 37.9688L27.5938 37.3219L28.4563 37.9688L28.097 36.8906L28.9595 36.1719H27.9532L27.5938 35.0938L27.2345 36.1719H26.5157C26.5157 36.2437 26.4438 36.3156 26.4438 36.3875L27.0188 36.8187L26.7313 37.9688Z" fill="white"/>
<circle opacity="0.15" cx="47" cy="43" r="23" fill="#F2F2F2"/>
</g>
</g>
<defs>
<filter id="filter0_d_224_1109" x="0" y="0" width="94" height="94" filterUnits="userSpaceOnUse" color-interpolation-filters="sRGB">
<feFlood flood-opacity="0" result="BackgroundImageFix"/>
<feColorMatrix in="SourceAlpha" type="matrix" values="0 0 0 0 0 0 0 0 0 0 0 0 0 0 0 0 0 0 127 0" result="hardAlpha"/>
<feOffset dy="4"/>
<feGaussianBlur stdDeviation="12"/>
<feComposite in2="hardAlpha" operator="out"/>
<feColorMatrix type="matrix" values="0 0 0 0 0 0 0 0 0 0 0 0 0 0 0 0 0 0 0.09 0"/>
<feBlend mode="normal" in2="BackgroundImageFix" result="effect1_dropShadow_224_1109"/>
<feBlend mode="normal" in="SourceGraphic" in2="effect1_dropShadow_224_1109" result="shape"/>
</filter>
<clipPath id="clip0_224_1109">
<rect x="24" y="20" width="46" height="46" rx="23" fill="white"/>
</clipPath>
</defs>
</svg>
