<svg width="73" height="45" viewBox="0 0 73 45" fill="none" xmlns="http://www.w3.org/2000/svg">
<rect x="0.119995" y="0.09375" width="71.92" height="44.64" rx="4.96" fill="#F2F2F2"/>
<g clip-path="url(#clip0_288_2)">
<path d="M29.0001 18.4414H26.0734C25.9765 18.4413 25.8828 18.4759 25.8091 18.5388C25.7355 18.6017 25.6867 18.6889 25.6716 18.7846L24.4879 26.2893C24.4825 26.3242 24.4846 26.3598 24.4943 26.3937C24.5039 26.4276 24.5208 26.459 24.5437 26.4857C24.5666 26.5125 24.5951 26.534 24.6271 26.5487C24.6592 26.5634 24.694 26.571 24.7293 26.5709H26.1265C26.2234 26.571 26.3172 26.5364 26.3909 26.4734C26.4646 26.4103 26.5133 26.3231 26.5283 26.2273L26.8476 24.2032C26.8625 24.1074 26.9112 24.0202 26.9848 23.9572C27.0584 23.8942 27.1521 23.8596 27.249 23.8595H28.1754C30.1033 23.8595 31.2159 22.9266 31.5065 21.0779C31.6375 20.2691 31.5121 19.6336 31.1333 19.1886C30.7174 18.6999 29.9796 18.4414 29.0001 18.4414ZM29.3377 21.1823C29.1777 22.2325 28.3753 22.2325 27.5994 22.2325H27.1578L27.4676 20.2713C27.4767 20.2139 27.506 20.1616 27.5501 20.1239C27.5943 20.0862 27.6505 20.0654 27.7086 20.0654H27.911C28.4395 20.0654 28.938 20.0654 29.1956 20.3667C29.3493 20.5464 29.3963 20.8135 29.3377 21.1823ZM37.7484 21.1485H36.3469C36.2888 21.1485 36.2326 21.1693 36.1885 21.207C36.1443 21.2447 36.115 21.297 36.106 21.3544L36.0439 21.7464L35.9459 21.6043C35.6425 21.1639 34.966 21.0167 34.2907 21.0167C32.742 21.0167 31.4192 22.1897 31.1616 23.8351C31.0276 24.6559 31.2181 25.4407 31.6837 25.9881C32.1108 26.4913 32.7218 26.701 33.4489 26.701C34.6968 26.701 35.3888 25.8986 35.3888 25.8986L35.3263 26.2881C35.3207 26.3229 35.3228 26.3585 35.3323 26.3924C35.3418 26.4264 35.3586 26.4579 35.3814 26.4847C35.4043 26.5116 35.4327 26.5331 35.4647 26.5479C35.4967 26.5628 35.5315 26.5704 35.5668 26.5705H36.8292C36.9261 26.5705 37.0199 26.5359 37.0936 26.4729C37.1673 26.4099 37.216 26.3227 37.231 26.2269L37.9885 21.4301C37.994 21.3954 37.992 21.3598 37.9825 21.326C37.973 21.2921 37.9563 21.2607 37.9334 21.2339C37.9106 21.2071 37.8822 21.1856 37.8503 21.1709C37.8184 21.1562 37.7836 21.1485 37.7484 21.1485ZM35.7949 23.8762C35.6596 24.6769 35.0242 25.2144 34.2136 25.2144C33.8067 25.2144 33.4814 25.0838 33.2726 24.8365C33.0655 24.5909 32.9867 24.2412 33.0526 23.8518C33.1789 23.058 33.8251 22.503 34.6232 22.503C35.0212 22.503 35.3447 22.6352 35.5578 22.8847C35.7713 23.1367 35.8561 23.4885 35.7949 23.8762ZM45.2125 21.1485H43.8041C43.7377 21.1486 43.6723 21.165 43.6136 21.196C43.555 21.2271 43.5047 21.2721 43.4674 21.327L41.5249 24.1882L40.7016 21.4387C40.6763 21.3548 40.6247 21.2813 40.5544 21.2291C40.4841 21.1768 40.3989 21.1486 40.3113 21.1485H38.9274C38.8885 21.1484 38.8502 21.1576 38.8156 21.1753C38.781 21.193 38.7512 21.2187 38.7285 21.2503C38.7059 21.2818 38.6911 21.3183 38.6854 21.3568C38.6797 21.3952 38.6833 21.4344 38.6959 21.4712L40.2471 26.0236L38.7887 28.0824C38.7628 28.1189 38.7474 28.1618 38.7443 28.2065C38.7411 28.2512 38.7503 28.2958 38.7709 28.3356C38.7914 28.3754 38.8225 28.4087 38.8608 28.432C38.899 28.4553 38.9429 28.4676 38.9877 28.4675H40.3943C40.46 28.4676 40.5247 28.4518 40.5829 28.4214C40.6411 28.391 40.6911 28.3469 40.7286 28.2929L45.4128 21.5315C45.4381 21.495 45.453 21.4521 45.4558 21.4077C45.4586 21.3632 45.4492 21.3189 45.4285 21.2794C45.4079 21.24 45.3768 21.2069 45.3388 21.1838C45.3007 21.1608 45.257 21.1486 45.2125 21.1485Z" fill="#253B80"/>
<path d="M49.8753 18.4409H46.9482C46.8514 18.4409 46.7578 18.4755 46.6842 18.5384C46.6106 18.6013 46.5619 18.6884 46.5468 18.7841L45.3632 26.2888C45.3577 26.3236 45.3598 26.3591 45.3693 26.393C45.3789 26.4269 45.3957 26.4583 45.4185 26.485C45.4414 26.5118 45.4698 26.5333 45.5017 26.548C45.5337 26.5628 45.5685 26.5704 45.6037 26.5704H47.1057C47.1735 26.5703 47.239 26.546 47.2905 26.5019C47.3419 26.4578 47.376 26.3968 47.3865 26.3299L47.7224 24.2026C47.7374 24.1069 47.7861 24.0197 47.8596 23.9567C47.9332 23.8937 48.0269 23.859 48.1238 23.859H49.0498C50.9781 23.859 52.0903 22.9261 52.3813 21.0774C52.5127 20.2686 52.3865 19.6331 52.0077 19.188C51.5922 18.6993 50.8549 18.4409 49.8753 18.4409ZM50.213 21.1818C50.0534 22.232 49.251 22.232 48.4747 22.232H48.0335L48.3437 20.2707C48.3526 20.2133 48.3818 20.161 48.4259 20.1233C48.47 20.0855 48.5262 20.0648 48.5842 20.0649H48.7867C49.3147 20.0649 49.8137 20.0649 50.0713 20.3661C50.225 20.5459 50.2716 20.8129 50.213 21.1818ZM58.6232 21.148H57.2226C57.1645 21.1478 57.1083 21.1685 57.0641 21.2063C57.02 21.2441 56.9909 21.2964 56.9821 21.3538L56.92 21.7458L56.8216 21.6037C56.5182 21.1634 55.8421 21.0162 55.1668 21.0162C53.6181 21.0162 52.2957 22.1892 52.0381 23.8346C51.9046 24.6554 52.0942 25.4402 52.5598 25.9875C52.9877 26.4908 53.598 26.7005 54.325 26.7005C55.5729 26.7005 56.2649 25.8981 56.2649 25.8981L56.2024 26.2875C56.1968 26.3224 56.1989 26.3581 56.2084 26.3921C56.218 26.4261 56.2349 26.4576 56.2578 26.4845C56.2808 26.5114 56.3093 26.5329 56.3414 26.5477C56.3735 26.5624 56.4084 26.57 56.4437 26.57H57.7057C57.8026 26.5699 57.8963 26.5352 57.9699 26.4722C58.0435 26.4092 58.0921 26.322 58.1071 26.2263L58.865 21.4296C58.8704 21.3947 58.8682 21.3591 58.8585 21.3252C58.8488 21.2913 58.8319 21.2599 58.8089 21.2332C58.7859 21.2064 58.7574 21.1849 58.7254 21.1702C58.6933 21.1555 58.6585 21.1479 58.6232 21.148ZM56.6697 23.8757C56.5353 24.6763 55.899 25.2138 55.0885 25.2138C54.6824 25.2138 54.3563 25.0833 54.1474 24.836C53.9403 24.5903 53.8624 24.2407 53.9275 23.8513C54.0546 23.0574 54.6999 22.5024 55.498 22.5024C55.896 22.5024 56.2195 22.6346 56.4326 22.8841C56.647 23.1362 56.7317 23.4879 56.6697 23.8757ZM60.2755 18.6467L59.0743 26.2888C59.0688 26.3236 59.0709 26.3591 59.0804 26.393C59.09 26.4269 59.1068 26.4583 59.1296 26.485C59.1525 26.5118 59.1809 26.5333 59.2128 26.548C59.2448 26.5628 59.2796 26.5704 59.3148 26.5704H60.5224C60.7231 26.5704 60.8934 26.4249 60.9242 26.2267L62.1088 18.7224C62.1143 18.6877 62.1122 18.6521 62.1026 18.6182C62.0931 18.5843 62.0763 18.5529 62.0534 18.5261C62.0306 18.4993 62.0022 18.4777 61.9702 18.463C61.9383 18.4482 61.9035 18.4405 61.8683 18.4404H60.516C60.4579 18.4406 60.4019 18.4615 60.3578 18.4993C60.3137 18.5371 60.2845 18.5893 60.2755 18.6467Z" fill="#179BD7"/>
<path d="M12.3342 28.0291L12.5581 26.6075L12.0595 26.5959H9.67889L11.3333 16.1059C11.3382 16.0738 11.3545 16.0446 11.3792 16.0236C11.4038 16.0025 11.4352 15.991 11.4677 15.9912H15.4817C16.8143 15.9912 17.734 16.2685 18.2141 16.8158C18.4392 17.0726 18.5826 17.3409 18.6519 17.6362C18.7246 17.946 18.7259 18.3162 18.6549 18.7677L18.6497 18.8006V19.0899L18.8748 19.2174C19.0467 19.3045 19.2011 19.4223 19.3306 19.5649C19.5232 19.7844 19.6477 20.0635 19.7003 20.3943C19.7547 20.7345 19.7367 21.1393 19.6477 21.5976C19.545 22.1248 19.3789 22.584 19.1547 22.9597C18.9569 23.2963 18.6908 23.5879 18.3737 23.8156C18.0759 24.027 17.722 24.1875 17.3219 24.2902C16.9341 24.3912 16.4921 24.4421 16.0072 24.4421H15.6948C15.4715 24.4421 15.2545 24.5226 15.0842 24.6668C14.9141 24.8125 14.8013 25.0139 14.7658 25.2351L14.7422 25.363L14.3468 27.8686L14.3289 27.9606C14.3242 27.9897 14.316 28.0043 14.304 28.0141C14.2924 28.0236 14.278 28.0289 14.263 28.0291H12.3342Z" fill="#253B80"/>
<path d="M19.0878 18.834C19.0758 18.9106 19.0621 18.9889 19.0467 19.0693C18.5174 21.7872 16.7063 22.7261 14.3933 22.7261H13.2156C12.9328 22.7261 12.6944 22.9315 12.6503 23.2105L12.0474 27.0345L11.8766 28.1185C11.8698 28.1615 11.8724 28.2055 11.8842 28.2474C11.8961 28.2893 11.9168 28.3281 11.9451 28.3612C11.9733 28.3943 12.0084 28.4209 12.048 28.4391C12.0875 28.4574 12.1305 28.4668 12.174 28.4669H14.2628C14.5102 28.4669 14.7203 28.2871 14.7592 28.0432L14.7798 27.9371L15.173 25.4413L15.1983 25.3044C15.2368 25.0596 15.4473 24.8799 15.6947 24.8799H16.0071C18.0308 24.8799 19.615 24.0582 20.078 21.6806C20.2715 20.6874 20.1713 19.858 19.6595 19.2748C19.4973 19.0943 19.3036 18.945 19.0878 18.834Z" fill="#179BD7"/>
<path d="M18.534 18.613C18.365 18.5641 18.1931 18.526 18.0192 18.4987C17.6757 18.446 17.3286 18.4206 16.9811 18.423H13.8349C13.7151 18.4229 13.5993 18.4657 13.5083 18.5435C13.4174 18.6214 13.3573 18.7292 13.3389 18.8475L12.6696 23.0867L12.6503 23.2103C12.6712 23.0754 12.7396 22.9524 12.8433 22.8635C12.947 22.7747 13.0791 22.7258 13.2156 22.7259H14.3933C16.7063 22.7259 18.5173 21.7866 19.0467 19.0692C19.0625 18.9887 19.0758 18.9104 19.0878 18.8338C18.9481 18.7606 18.8025 18.6992 18.6526 18.6502C18.6133 18.6372 18.5737 18.6248 18.534 18.613Z" fill="#222D65"/>
<path d="M13.3389 18.8474C13.3572 18.7291 13.4173 18.6212 13.5083 18.5434C13.5993 18.4656 13.7152 18.423 13.8349 18.4233H16.9811C17.3539 18.4233 17.7018 18.4477 18.0193 18.4991C18.2342 18.5329 18.4461 18.5834 18.6531 18.6501C18.8093 18.7019 18.9543 18.7631 19.0883 18.8337C19.2458 17.8294 19.087 17.1455 18.5439 16.5263C17.9453 15.8446 16.8647 15.5527 15.4821 15.5527H11.468C11.1856 15.5527 10.9446 15.7581 10.901 16.0376L9.22903 26.6355C9.22125 26.6847 9.22421 26.735 9.23772 26.7829C9.25123 26.8309 9.27496 26.8753 9.30729 26.9132C9.33962 26.9511 9.37978 26.9816 9.425 27.0025C9.47022 27.0234 9.51943 27.0342 9.56924 27.0343H12.0474L12.6696 23.0866L13.3389 18.8474Z" fill="#253B80"/>
</g>
<defs>
<clipPath id="clip0_288_2">
<rect width="52.9067" height="14.0732" fill="white" transform="translate(9.21332 14.9736)"/>
</clipPath>
</defs>
</svg>
